<svg xmlns="http://www.w3.org/2000/svg" width="381.365" height="273.499" viewBox="0 0 381.365 273.499">
  <g id="Groupe_5" data-name="Groupe 5" transform="translate(-845.635 -288.501)">
    <rect id="Rectangle_1" data-name="Rectangle 1" width="48.667" height="42.634" transform="translate(1168.467 385.571)" fill="#fff"/>
    <path id="Tracé_1" data-name="Tracé 1" d="M353.948,161.82H305.268a.628.628,0,0,1-.628-.628V118.558a.628.628,0,0,1,.628-.628h48.679a.628.628,0,0,1,.628.628v42.634A.628.628,0,0,1,353.948,161.82ZM305.9,160.564h47.422V119.187H305.9Z" transform="translate(863.198 267.012)" fill="#d1d3d4"/>
    <path id="Tracé_2" data-name="Tracé 2" d="M353.948,122.377H305.268a.628.628,0,0,1-.628-.628.641.641,0,0,1,.629-.628h48.679a.641.641,0,0,1,.628.628A.629.629,0,0,1,353.948,122.377Z" transform="translate(863.198 267.832)" fill="#d1d3d4"/>
    <path id="Tracé_3" data-name="Tracé 3" d="M325.693,132.755H312.608a.641.641,0,0,1-.628-.628V124.8a.641.641,0,0,1,.628-.628h13.084a.641.641,0,0,1,.628.628v7.328a.641.641,0,0,1-.628.628ZM313.262,131.5h11.827v-6.071H313.262Z" transform="translate(865.084 268.615)" fill="#d1d3d4"/>
    <path id="Tracé_4" data-name="Tracé 4" d="M340.32,146.325H327.248a.628.628,0,0,1-.628-.628v-7.328a.628.628,0,0,1,.628-.628H340.32a.628.628,0,0,1,.628.628V145.7A.628.628,0,0,1,340.32,146.325Zm-12.443-1.257h11.79V139H327.852Z" transform="translate(868.845 272.101)" fill="#d1d3d4"/>
    <path id="Tracé_5" data-name="Tracé 5" d="M325.693,149.235H312.608a.641.641,0,0,1-.628-.628v-7.328a.641.641,0,0,1,.628-.628h13.084a.641.641,0,0,1,.628.628v7.353a.641.641,0,0,1-.628.6Zm-12.456-1.257h11.827v-6.071h-11.8Z" transform="translate(865.084 272.849)" fill="#d1d3d4"/>
    <path id="Tracé_6" data-name="Tracé 6" d="M336.209,140.988a.628.628,0,0,1-.628-.628V136.89H317.808a.641.641,0,0,1-.628-.628v-5.643a.628.628,0,1,1,1.257,0v5.028h17.772a.628.628,0,0,1,.628.628v4.1a.628.628,0,0,1-.628.616Z" transform="translate(866.42 270.11)" fill="#d1d3d4"/>
    <path id="Tracé_7" data-name="Tracé 7" d="M317.808,143.487a.628.628,0,0,1-.628-.628v-7.73a.628.628,0,1,1,1.257,0v7.755a.628.628,0,0,1-.628.6Z" transform="translate(866.42 271.269)" fill="#d1d3d4"/>
    <rect id="Rectangle_2" data-name="Rectangle 2" width="117.142" height="83.382" transform="translate(864.25 315.525)" fill="#fff"/>
    <path id="Tracé_8" data-name="Tracé 8" d="M180.37,146.836H63.228a.628.628,0,0,1-.628-.628V62.838a.628.628,0,0,1,.628-.628H180.37a.628.628,0,0,1,.628.628v83.319a.628.628,0,0,1-.628.679ZM63.857,145.579H179.742V63.467H63.857Z" transform="translate(801.021 252.699)" fill="#d1d3d4"/>
    <path id="Tracé_9" data-name="Tracé 9" d="M180.37,70.027H63.228a.628.628,0,0,1,0-1.257H180.37a.628.628,0,1,1,0,1.257Z" transform="translate(801.021 254.384)" fill="#d1d3d4"/>
    <path id="Tracé_10" data-name="Tracé 10" d="M85.7,75.327H71.4a.628.628,0,0,1,0-1.257H85.7a.628.628,0,0,1,0,1.257Z" transform="translate(803.12 255.745)" fill="#d1d3d4"/>
    <path id="Tracé_11" data-name="Tracé 11" d="M117.322,75.327H88.778a.628.628,0,0,1,0-1.257h28.544a.628.628,0,1,1,0,1.257Z" transform="translate(807.585 255.745)" fill="#d1d3d4"/>
    <path id="Tracé_12" data-name="Tracé 12" d="M124.165,81.257H95.608a.641.641,0,0,1-.628-.628A.628.628,0,0,1,95.608,80h28.556a.628.628,0,1,1,0,1.257Z" transform="translate(809.339 257.269)" fill="#d1d3d4"/>
    <path id="Tracé_13" data-name="Tracé 13" d="M88.372,81.257h-14.3a.628.628,0,0,1,0-1.257h14.3a.628.628,0,0,1,0,1.257Z" transform="translate(803.806 257.269)" fill="#d1d3d4"/>
    <path id="Tracé_14" data-name="Tracé 14" d="M88.239,87.137h-11.5a.628.628,0,0,1,0-1.257h11.5a.628.628,0,0,1,0,1.257Z" transform="translate(804.492 258.779)" fill="#d1d3d4"/>
    <path id="Tracé_15" data-name="Tracé 15" d="M129.692,87.137H93.958a.628.628,0,0,1,0-1.257h35.733a.628.628,0,1,1,0,1.257Z" transform="translate(808.916 258.779)" fill="#d1d3d4"/>
    <path id="Tracé_16" data-name="Tracé 16" d="M93.724,93.047H79.408a.641.641,0,0,1-.628-.628.628.628,0,0,1,.628-.628H93.724a.628.628,0,1,1,0,1.257Z" transform="translate(805.178 260.297)" fill="#d1d3d4"/>
    <path id="Tracé_17" data-name="Tracé 17" d="M136.954,93.047h-42.5a.641.641,0,0,1-.628-.628.628.628,0,0,1,.628-.628h42.5a.628.628,0,1,1,0,1.257Z" transform="translate(809.044 260.297)" fill="#d1d3d4"/>
    <path id="Tracé_18" data-name="Tracé 18" d="M90.7,98.947H76.388a.628.628,0,1,1,0-1.257H90.7a.628.628,0,1,1,0,1.257Z" transform="translate(804.402 261.813)" fill="#d1d3d4"/>
    <path id="Tracé_19" data-name="Tracé 19" d="M115.18,98.947H92.128a.628.628,0,0,1,0-1.257h23.039a.628.628,0,1,1,0,1.257Z" transform="translate(808.446 261.813)" fill="#d1d3d4"/>
    <path id="Tracé_20" data-name="Tracé 20" d="M140.517,98.947H117.478a.628.628,0,0,1,0-1.257h23.039a.628.628,0,1,1,0,1.257Z" transform="translate(814.958 261.813)" fill="#d1d3d4"/>
    <path id="Tracé_21" data-name="Tracé 21" d="M81.328,104.847h-4.94a.628.628,0,0,1-.628-.628.641.641,0,0,1,.628-.628h4.94a.641.641,0,0,1,.628.628.628.628,0,0,1-.628.628Z" transform="translate(804.402 263.329)" fill="#d1d3d4"/>
    <path id="Tracé_22" data-name="Tracé 22" d="M116.5,104.847H87a.628.628,0,0,1-.628-.628A.641.641,0,0,1,87,103.59h29.5a.628.628,0,1,1,0,1.257Z" transform="translate(807.128 263.329)" fill="#d1d3d4"/>
    <path id="Tracé_23" data-name="Tracé 23" d="M121.411,104.847h-8.283a.628.628,0,0,1-.628-.628.641.641,0,0,1,.628-.628h8.233a.629.629,0,0,1,.05,1.257Z" transform="translate(813.84 263.329)" fill="#d1d3d4"/>
    <path id="Tracé_24" data-name="Tracé 24" d="M84.131,110.757H76.388a.628.628,0,1,1,0-1.257h7.742a.628.628,0,1,1,0,1.257Z" transform="translate(804.402 264.847)" fill="#d1d3d4"/>
    <path id="Tracé_25" data-name="Tracé 25" d="M123.375,110.757H88.358a.628.628,0,1,1,0-1.257h35.017a.628.628,0,1,1,0,1.257Z" transform="translate(807.477 264.847)" fill="#d1d3d4"/>
    <path id="Tracé_26" data-name="Tracé 26" d="M133.284,110.757H118.968a.628.628,0,1,1,0-1.257h14.316a.628.628,0,1,1,0,1.257Z" transform="translate(815.34 264.847)" fill="#d1d3d4"/>
    <path id="Tracé_27" data-name="Tracé 27" d="M81.3,116.657H73.758a.628.628,0,1,1,0-1.257H81.3a.628.628,0,1,1,0,1.257Z" transform="translate(803.727 266.362)" fill="#d1d3d4"/>
    <path id="Tracé_28" data-name="Tracé 28" d="M119.892,116.657H86.8a.628.628,0,1,1,0-1.257h33.094a.628.628,0,0,1,0,1.257Z" transform="translate(807.076 266.362)" fill="#d1d3d4"/>
    <path id="Tracé_29" data-name="Tracé 29" d="M88.06,122.567H73.718a.628.628,0,1,1,0-1.257H88.06a.628.628,0,0,1,.628.628A.641.641,0,0,1,88.06,122.567Z" transform="translate(803.716 267.881)" fill="#d1d3d4"/>
    <path id="Tracé_30" data-name="Tracé 30" d="M152.212,93.047H132.868a.628.628,0,1,1,0-1.257h19.343a.628.628,0,1,1,0,1.257Z" transform="translate(818.911 260.297)" fill="#d1d3d4"/>
    <path id="Tracé_31" data-name="Tracé 31" d="M127.17,75.353h-9.829a.616.616,0,0,1-.478-.742.628.628,0,0,1,.691-.49h32.3a.628.628,0,1,1,0,1.257C143.22,75.34,134.07,75.353,127.17,75.353Z" transform="translate(814.957 255.757)" fill="#d1d3d4"/>
    <path id="Tracé_32" data-name="Tracé 32" d="M130.7,116.657H116.218a.628.628,0,0,1,0-1.257H130.7a.641.641,0,0,1,.628.628A.628.628,0,0,1,130.7,116.657Z" transform="translate(814.634 266.362)" fill="#d1d3d4"/>
    <path id="Tracé_33" data-name="Tracé 33" d="M103.484,122.567H92.838a.628.628,0,0,1,0-1.257h10.646a.628.628,0,0,1,.628.628A.641.641,0,0,1,103.484,122.567Z" transform="translate(808.628 267.881)" fill="#d1d3d4"/>
    <path id="Tracé_34" data-name="Tracé 34" d="M129.83,122.567h-25.3a.628.628,0,1,1,0-1.257h25.3a.628.628,0,1,1,0,1.257Z" transform="translate(811.631 267.881)" fill="#d1d3d4"/>
    <path id="Tracé_35" data-name="Tracé 35" d="M315.93,238.825s9.753-101.808-5.028-117.23-61.374-9.552-85.167-4.688c-27.651,5.643-12.858,123.175-12.858,123.175Z" transform="translate(838.61 265.396)" fill="#231f20"/>
    <path id="Tracé_36" data-name="Tracé 36" d="M213.042,240.874a.616.616,0,0,1-.616-.54c-.6-4.826-14.492-118.223,13.348-123.916,11.312-2.313,68.714-12.971,85.745,4.864,14.768,15.485,5.556,113.56,5.153,117.733a.616.616,0,0,1-.616.566l-103,1.257Zm60.331-128.492H271.9c-19.017.176-38.4,3.771-45.851,5.266-10.947,2.237-16.578,24.057-16.264,63.1.214,27.476,3.343,54.675,3.771,58.873l101.883-1.257c.742-8.157,8.949-101.695-4.877-116.174-6.146-6.523-18.677-9.8-37.216-9.8Zm42.734,126.568Z" transform="translate(838.484 265.27)" fill="#231f20"/>
    <path id="Tracé_37" data-name="Tracé 37" d="M207.731,145.182l-5.92,57s-44.393,6.825-51.884,6.146-21.933,2.652-24.057,4.487-12.255,13.424-10.193,13.436,11.061-8.346,11.991-8.321,8.7,2.036,8.7,2.036-12.669,7.089-8.9,7.428,15.812-5.455,17.119-5.744,62.844,9.716,76.67,6.435,11.764-25.364,11.727-32.679-1.86-55.228-1.86-55.228Z" transform="translate(814.585 272.728)" fill="#fff"/>
    <path id="Tracé_38" data-name="Tracé 38" d="M212.822,229.519c-15.8,0-44.054-3.884-59.074-5.958-4.776-.654-8.547-1.194-9.012-1.144a27.031,27.031,0,0,0-2.916,1.181c-5.794,2.438-11.651,4.8-14.341,4.563-.892-.075-1.169-.5-1.257-.855-.264-1.257,2.627-3.557,8.585-6.976-2.916-.742-6.523-1.609-7.051-1.634-.3.126-2.174,1.634-3.683,2.841-3.984,3.205-6.925,5.48-8.283,5.48h0a.855.855,0,0,1-.842-.566c-.754-2.049,9.716-13.2,10.621-13.977,2.325-2,16.918-5.329,24.522-4.638,6.9.628,46.429-5.329,51.256-6.058l5.87-56.56a.616.616,0,0,1,.49-.54l23.278-5.028a.679.679,0,0,1,.515.126.591.591,0,0,1,.239.465c0,.49,1.81,47.988,1.86,55.24v2.438c.239,9.024.754,27.79-12.267,30.882a40.143,40.143,0,0,1-8.509.716Zm-68.1-8.358c.666,0,2.715.277,9.188,1.156,16.955,2.338,56.673,7.793,67.193,5.3,12.028-2.853,11.538-20.94,11.312-29.625v-2.514c0-6.737-1.6-48.327-1.822-54.448l-22.1,4.751-5.87,56.56a.629.629,0,0,1-.528.553c-1.822.289-44.569,6.812-52.048,6.159s-21.706,2.715-23.579,4.336-8.936,9.779-10.055,12.192a50.386,50.386,0,0,0,6.988-5.028c3.155-2.514,3.947-3.13,4.5-3.117.943,0,7.541,1.722,8.8,2.049a.641.641,0,0,1,.151,1.169c-4.009,2.237-8.434,5.128-9.213,6.284h0c2.6.226,9.829-2.828,13.738-4.475a31.977,31.977,0,0,1,3.205-1.257Zm57.213-18.853Z" transform="translate(814.459 272.59)" fill="#231f20"/>
    <path id="Tracé_39" data-name="Tracé 39" d="M186.79,181.7c6.284-39.051,12.845-43.337,12.845-43.337,11.312-19.557,47.686-23.114,47.686-23.114s36.148,14.869,43.576,41.477c4.914,17.6,3.482,86.863,3.482,86.863l-90.835-3.544s-2.727-29.725.7-58.408Z" transform="translate(832.924 266.324)" fill="#68a9fd"/>
    <path id="Tracé_40" data-name="Tracé 40" d="M223.406,141.418s-5.794,44.909,8.057,46.5S253.37,130.37,253.37,130.37l-30.63,6.284" transform="translate(842.022 270.208)" fill="#231f20"/>
    <path id="Tracé_41" data-name="Tracé 41" d="M232.145,188.764a5.272,5.272,0,0,1-.628,0,7.315,7.315,0,0,1-5.028-3c-7.918-10.168-3.771-42.872-3.632-44.268a.627.627,0,1,1,1.244.163c0,.339-4.223,33.584,3.381,43.337a6.058,6.058,0,0,0,4.135,2.514c10.721,1.257,18.74-39.3,21.141-56.2L223,137.445a.641.641,0,1,1-.251-1.257l30.63-6.284a.566.566,0,0,1,.553.163.628.628,0,0,1,.2.54C253.864,133,246.059,188.751,232.145,188.764Z" transform="translate(841.879 270.084)" fill="#231f20"/>
    <rect id="Rectangle_3" data-name="Rectangle 3" width="380.12" height="8.735" transform="translate(846.251 507.916)" fill="#fff"/>
    <path id="Tracé_42" data-name="Tracé 42" d="M429.026,225.25H48.918a.628.628,0,0,1-.628-.628V215.9a.628.628,0,0,1,.628-.628H429.026a.628.628,0,0,1,.628.628v8.723A.628.628,0,0,1,429.026,225.25ZM49.547,223.993H428.4v-7.466H49.547Z" transform="translate(797.345 292.018)" fill="#231f20"/>
    <rect id="Rectangle_4" data-name="Rectangle 4" width="369.034" height="44.72" transform="translate(851.807 516.639)" fill="#fff"/>
    <path id="Tracé_43" data-name="Tracé 43" d="M422.35,268.2H53.328a.628.628,0,0,1-.628-.628V222.838a.628.628,0,0,1,.628-.628H422.35a.628.628,0,0,1,.628.628v44.733A.628.628,0,0,1,422.35,268.2ZM53.957,266.943H421.722V223.467H53.957Z" transform="translate(798.478 293.801)" fill="#231f20"/>
    <rect id="Rectangle_5" data-name="Rectangle 5" width="117.129" height="5.128" transform="translate(932.549 502.788)" fill="#231f20"/>
    <path id="Tracé_44" data-name="Tracé 44" d="M234.7,217.575H117.568a.628.628,0,0,1-.628-.628v-5.128a.628.628,0,0,1,.628-.628H234.7a.628.628,0,0,1,.628.628v5.128A.641.641,0,0,1,234.7,217.575Zm-116.5-1.257H234.069v-3.871H118.2Z" transform="translate(814.981 290.97)" fill="#231f20"/>
    <path id="Tracé_45" data-name="Tracé 45" d="M277.755,165.12l16.616,38.436s-27.827,5.379-43.991,7.629c0,0-18.614-6.724-24.9-6.511s-15.4,6.548-17.508,8.8c-6.988,7.3-6.473,11.312-6.372,13.461.2,4.424,32.151-1.081,36.45-.641s78.92,7.139,85.192,1.533-14.354-69.556-14.354-69.556" transform="translate(836.716 277.375)" fill="#fff"/>
    <path id="Tracé_46" data-name="Tracé 46" d="M303.354,230.756c-25.314,0-64.767-3.683-65.358-3.771a88.978,88.978,0,0,0-10.131.842c-12.933,1.408-23.881,2.413-26.256.339a1.559,1.559,0,0,1-.591-1.144v-.239c-.126-2.262-.352-6.46,6.561-13.687,2.388-2.514,11.626-8.723,17.936-8.949,6.058-.226,23.1,5.819,25,6.5,14.53-2.024,38.511-6.574,43.1-7.453l-16.34-37.707a.628.628,0,1,1,1.144-.49l16.629,38.436a.653.653,0,0,1,0,.553.641.641,0,0,1-.44.314c-.277.063-28.041,5.4-44.092,7.642a.63.63,0,0,1-.3,0c-.176-.063-18.6-6.737-24.673-6.473s-15.083,6.448-17.069,8.559c-6.523,6.837-6.284,10.684-6.209,12.745v.251a.362.362,0,0,0,.151.251c2.2,1.885,16.666.3,25.3-.641a81.761,81.761,0,0,1,10.407-.83c9.2.968,79,6.787,84.714,1.684,4.387-3.921-6.284-43.35-14.542-68.9a.626.626,0,0,1,1.194-.377c2.137,6.586,20.588,64.5,14.19,70.222C321.767,230.14,313.748,230.756,303.354,230.756Z" transform="translate(836.569 277.248)" fill="#231f20"/>
    <path id="Tracé_47" data-name="Tracé 47" d="M258.2,131.23a75.414,75.414,0,0,1,26.508,13.939c12.921,11.01,18.275,38.574,18.275,38.574L255.7,192.4Z" transform="translate(850.626 270.429)" fill="#68a9fd"/>
    <path id="Tracé_48" data-name="Tracé 48" d="M225.892,148.793c3.507-1.257,6.875-2.514,10.784-2.162,5.832.465,11.312,2.778,17.282,3.054,6.36.289,13.021-.9,19.318-1.76,1.835-.264.289,2.413,1.7,1.257,4.927-4.324,3.972-11.928,3.431-17.659a146.354,146.354,0,0,0-8.522-38.913c-2.514-6.486-12.079-30.165-21.908-18.652,2.212-2.589-10.055-7.064-11.79-7.365-15.673-2.853-28.318,11.915-30.4,26.143-1.559,10.369-.817,20.475-4.814,30.442-1.76,4.4-4.148,8.8-3.884,13.537.3,5.694,4.638,10.684,9.929,12.808s11.312,1.709,16.767,0C224.447,149.283,225.163,149.032,225.892,148.793Z" transform="translate(835.563 253.733)" fill="#fff"/>
    <path id="Tracé_49" data-name="Tracé 49" d="M214.96,151.726a21.567,21.567,0,0,1-8.107-1.5c-5.87-2.35-10.055-7.717-10.319-13.348-.226-4.009,1.383-7.768,2.929-11.4.339-.8.679-1.609,1.006-2.413,2.665-6.649,3.18-13.26,3.771-20.248.264-3.28.528-6.661,1.043-10.055a34.69,34.69,0,0,1,13.461-22.448,22.926,22.926,0,0,1,17.7-4.248c.98.176,10.684,3.419,12.317,6.4a6.863,6.863,0,0,1,5.945-2.061c6.548,1.119,12.267,12.569,15.912,22.071,4.324,11.237,7.127,23.994,8.547,38.963l.063.7c.566,5.845,1.257,13.122-3.708,17.483-.251.226-.729.641-1.257.415a.993.993,0,0,1-.49-1.006,1.258,1.258,0,0,0-.063-.465h-.239l-2.991.427a89.567,89.567,0,0,1-16.44,1.345,51.029,51.029,0,0,1-9.288-1.584,53.923,53.923,0,0,0-8.019-1.471c-3.595-.289-6.712.792-10.055,1.948l-.515.176h0c-.716.251-1.433.5-2.174.729a30.655,30.655,0,0,1-9.024,1.584ZM232.418,67a22.121,22.121,0,0,0-12.984,4.361,33.37,33.37,0,0,0-12.958,21.593c-.49,3.343-.767,6.712-1.018,9.967-.54,6.775-1.093,13.826-3.771,20.613-.327.817-.679,1.621-1.018,2.438-1.5,3.494-3.029,7.127-2.841,10.847.289,5.141,4.11,10.055,9.54,12.242,5.932,2.376,12.167,1.257,16.34,0l2.149-.716.515-.189c3.419-1.257,6.662-2.325,10.52-2.011a54.976,54.976,0,0,1,8.207,1.508,49.346,49.346,0,0,0,9.05,1.546,88.587,88.587,0,0,0,16.214-1.332l2.991-.427a1.508,1.508,0,0,1,1.257.277,1.333,1.333,0,0,1,.44.792c4.16-3.972,3.507-10.709,2.979-16.151l-.063-.691C276.56,116.76,273.8,104.1,269.509,92.98c-5.027-12.933-10.294-20.487-14.957-21.292-2.049-.339-3.984.578-5.895,2.815h0a.628.628,0,1,1-.955-.8.427.427,0,0,0,.075-.452c-.767-2.137-9.653-5.555-11.5-5.895A21.631,21.631,0,0,0,232.418,67Zm-6.385,81.924Z" transform="translate(835.422 253.603)" fill="#231f20"/>
    <path id="Tracé_50" data-name="Tracé 50" d="M209.311,92.525s-3.7,16.151.427,27.652a17.383,17.383,0,0,0,14.882,11.852l2.514,20.827s1.181,10.658,14.039,7.441a22.548,22.548,0,0,0,15.975-15.083l-3.142-38.486S238.22,100,237.792,86.09C237.792,86.09,221.227,96.723,209.311,92.525Z" transform="translate(838.318 258.833)" fill="#fff"/>
    <path id="Tracé_51" data-name="Tracé 51" d="M236.8,161.583a9.728,9.728,0,0,1-10.181-8.61l-2.451-20.311a18.162,18.162,0,0,1-14.907-12.217c-4.135-11.475-.6-27.274-.452-27.941a.641.641,0,0,1,.3-.415.616.616,0,0,1,.515,0c11.513,4.047,27.8-6.284,27.966-6.372a.628.628,0,0,1,.628,0,.654.654,0,0,1,.339.54c.365,13.336,15.661,20.01,15.812,20.11a.6.6,0,0,1,.377.528l3.142,38.486a.628.628,0,0,1,0,.214,23.479,23.479,0,0,1-16.44,15.472A19.332,19.332,0,0,1,236.8,161.583ZM209.887,93.46c-.628,3.167-2.979,16.742.553,26.558a16.641,16.641,0,0,0,14.316,11.438.616.616,0,0,1,.591.553l2.514,20.827a9.351,9.351,0,0,0,3.582,6c2.363,1.621,5.606,1.936,9.691.918a22.146,22.146,0,0,0,15.5-14.479l-3.1-38.008c-2.3-1.081-15.083-7.68-16.164-19.959-3.607,2.124-16.943,9.351-27.476,6.159Z" transform="translate(838.182 258.716)" fill="#231f20"/>
    <path id="Tracé_52" data-name="Tracé 52" d="M217.594,115.413a5.606,5.606,0,0,1-1.973-.314,1.345,1.345,0,0,1-.817-.855c-.917-2.514,3.771-10.9,4.764-12.569a.628.628,0,0,1,.855-.239.641.641,0,0,1,.226.867c-2.25,3.884-5.191,10.055-4.663,11.475,0,.088,0,.1.075.1,2.187.83,6.171-.742,6.209-.754a.629.629,0,1,1,.465,1.169A16.214,16.214,0,0,1,217.594,115.413Z" transform="translate(840.09 262.755)" fill="#231f20"/>
    <path id="Tracé_53" data-name="Tracé 53" d="M223.361,118.993a18.464,18.464,0,0,1-9.829-3.23.616.616,0,0,1-.2-.867.628.628,0,0,1,.867-.2c4.751,3.017,9.238,3.771,13.348,2.3a14.354,14.354,0,0,0,7.328-6.184.641.641,0,0,1,.792-.415.628.628,0,0,1,.4.779,15.145,15.145,0,0,1-8.019,6.976A13.663,13.663,0,0,1,223.361,118.993Z" transform="translate(839.716 265.07)" fill="#231f20"/>
    <path id="Tracé_54" data-name="Tracé 54" d="M221.16,123.07s11.312,0,17.483-2.35c0,0-5.028,17.257-15.585,18.439Z" transform="translate(841.753 267.729)" fill="#231f20"/>
    <path id="Tracé_55" data-name="Tracé 55" d="M223.187,139.915a.641.641,0,0,1-.628-.553l-1.9-16.088a.653.653,0,0,1,.151-.5.591.591,0,0,1,.478-.2c.1,0,11.312,0,17.257-2.3a.616.616,0,0,1,.83.754c-.214.729-5.241,17.672-16.126,18.853Zm-1.194-16.1,1.734,14.756c8.082-1.445,12.732-12.946,14.052-16.7C232.4,123.576,224.406,123.79,221.993,123.815Z" transform="translate(841.624 267.601)" fill="#231f20"/>
    <ellipse id="Ellipse_1" data-name="Ellipse 1" cx="1.647" cy="2.891" rx="1.647" ry="2.891" transform="translate(1065.358 358.951) rotate(-3.75)" fill="#231f20"/>
    <ellipse id="Ellipse_2" data-name="Ellipse 2" cx="1.647" cy="2.891" rx="1.647" ry="2.891" transform="translate(1050.197 359.94) rotate(-3.75)" fill="#231f20"/>
    <path id="Tracé_56" data-name="Tracé 56" d="M266.467,112.14c1.923,12.192,5.028,34.677-14.982,30.882a16.465,16.465,0,0,1-10.357-6.712c-4.412-6.284,4.826-16.93,9.188-21.732" transform="translate(846.584 265.525)" fill="#fff"/>
    <path id="Tracé_57" data-name="Tracé 57" d="M255.777,144.2a22.952,22.952,0,0,1-4.273-.44,17.081,17.081,0,0,1-10.759-6.963c-4.361-6.284,3.18-15.849,9.238-22.511a.616.616,0,0,1,.88,0,.628.628,0,0,1,0,.892c-3.331,3.658-13.436,14.781-9.138,20.94a15.749,15.749,0,0,0,9.967,6.46c5.141.98,9.037.214,11.6-2.275,6.108-5.92,3.771-20.764,2.627-27.9a.629.629,0,0,1,1.244-.189c1.257,7.906,3.582,22.624-2.991,29A11.639,11.639,0,0,1,255.777,144.2Z" transform="translate(846.451 265.406)" fill="#231f20"/>
    <path id="Tracé_58" data-name="Tracé 58" d="M228.334,108.3c-5.191,0-9.414-3.532-9.414-7.868,0-3.871,3.343-6.008,9.414-6.008s9.4,2.137,9.4,6.008C237.736,104.764,233.512,108.3,228.334,108.3Zm0-12.569c-3.771,0-8.157.83-8.157,4.751,0,3.645,3.658,6.611,8.157,6.611s8.145-2.966,8.145-6.611c0-3.972-4.437-4.8-8.145-4.8Z" transform="translate(841.178 260.973)" fill="#231f20"/>
    <path id="Tracé_59" data-name="Tracé 59" d="M213.2,108.3c-5.178,0-9.4-3.532-9.4-7.868,0-3.871,3.343-6.008,9.4-6.008s9.414,2.137,9.414,6.008C222.616,104.764,218.392,108.3,213.2,108.3Zm0-12.569c-3.708,0-8.145.83-8.145,4.751,0,3.645,3.658,6.611,8.145,6.611s8.157-2.966,8.157-6.611c0-3.972-4.437-4.8-8.157-4.8Z" transform="translate(837.294 260.973)" fill="#231f20"/>
    <path id="Tracé_60" data-name="Tracé 60" d="M219.844,99.957H218.4a.628.628,0,1,1,0-1.257h1.445a.628.628,0,1,1,0,1.257Z" transform="translate(840.883 262.072)" fill="#231f20"/>
    <path id="Tracé_61" data-name="Tracé 61" d="M247.784,99.957H233.518a.628.628,0,0,1,0-1.257h14.266a.641.641,0,0,1,.628.628A.628.628,0,0,1,247.784,99.957Z" transform="translate(844.767 262.072)" fill="#231f20"/>
    <path id="Tracé_62" data-name="Tracé 62" d="M239.06,102.5s3.934-12.745,10.91-5.845-.855,16.34-6.284,16.239" transform="translate(846.352 261.022)" fill="#fff"/>
    <path id="Tracé_63" data-name="Tracé 63" d="M243.837,113.655h0a.628.628,0,1,1,.013-1.257h.063c2.815,0,6.284-2.753,7.68-6.171a7.805,7.805,0,0,0-1.873-9c-1.533-1.508-3-2.112-4.361-1.76-3.469.867-5.493,7.277-5.505,7.353a.656.656,0,1,1-1.257-.377c.088-.289,2.25-7.152,6.41-8.195,1.81-.465,3.67.239,5.543,2.086A8.974,8.974,0,0,1,252.7,106.7C251.051,110.626,247.18,113.655,243.837,113.655Z" transform="translate(846.225 260.893)" fill="#231f20"/>
    <path id="Tracé_64" data-name="Tracé 64" d="M199.649,155.553h-.063a.641.641,0,0,1-.566-.691,69.307,69.307,0,0,1,5.128-20.927.63.63,0,0,1,1.144.528,68.136,68.136,0,0,0-5.028,20.525.628.628,0,0,1-.616.566Z" transform="translate(836.065 271.03)" fill="#231f20"/>
    <rect id="Rectangle_6" data-name="Rectangle 6" width="135.266" height="89.855" rx="6.59" transform="translate(909.36 381.033)" fill="#fff"/>
    <path id="Tracé_65" data-name="Tracé 65" d="M226.077,205.419H107.4a8.924,8.924,0,0,1-8.911-8.911V123.231a8.924,8.924,0,0,1,8.911-8.911H226.077a8.924,8.924,0,0,1,8.911,8.911v73.277A8.924,8.924,0,0,1,226.077,205.419Zm-118.7-89.842a7.654,7.654,0,0,0-7.654,7.654v73.277a7.654,7.654,0,0,0,7.654,7.654h118.7a7.654,7.654,0,0,0,7.654-7.654V123.231a7.654,7.654,0,0,0-7.654-7.654Z" transform="translate(810.241 266.085)" fill="#231f20"/>
    <path id="Tracé_66" data-name="Tracé 66" d="M165.2,162.05v30.48l-19.758-.88Z" transform="translate(822.302 278.346)" fill="#231f20"/>
    <path id="Tracé_67" data-name="Tracé 67" d="M165.323,193.287h0l-19.746-.88a.666.666,0,0,1-.54-.352.628.628,0,0,1,0-.628l19.758-29.6a.616.616,0,0,1,.7-.251.628.628,0,0,1,.452.6v30.48a.644.644,0,0,1-.628.628ZM146.709,191.2l17.986.8V164.253Z" transform="translate(822.177 278.217)" fill="#231f20"/>
    <path id="Tracé_68" data-name="Tracé 68" d="M144.875,162.339s-15.548,61.236-16.264,63.95c-.792,2.916,1.609,3.368,5.493,3.368h37.04v-2.665h-15.8s6.749-30.819,14.215-64.943Z" transform="translate(817.94 278.346)" fill="#fff"/>
    <path id="Tracé_69" data-name="Tracé 69" d="M171.264,230.415H134.286c-2.891,0-4.864-.239-5.782-1.445a3.016,3.016,0,0,1-.327-2.715c.716-2.627,16.113-63.322,16.277-63.938a.6.6,0,0,1,.591-.465l24.685-.3h0a.578.578,0,0,1,.478.226.628.628,0,0,1,.138.528l-14.052,64.189h15.02a.628.628,0,0,1,.628.628v2.665a.628.628,0,0,1-.679.628ZM145.485,163.1c-1.445,5.694-15.472,60.972-16.151,63.485a1.848,1.848,0,0,0,.1,1.621c.641.842,2.778.955,4.789.955h36.45V227.75H155.465a.628.628,0,0,1-.49-.226.666.666,0,0,1-.126-.528l14.039-64.189Z" transform="translate(817.82 278.218)" fill="#231f20"/>
    <path id="Tracé_70" data-name="Tracé 70" d="M272.055,187.5a.641.641,0,0,1-.578-.39c-5.028-12.192-13.574-32.792-13.537-33.747a.666.666,0,0,1,.654-.6.628.628,0,0,1,.6.591c.277,1.37,8.182,20.626,13.449,33.282a.641.641,0,0,1-.339.817A.6.6,0,0,1,272.055,187.5Z" transform="translate(851.202 275.96)" fill="#231f20"/>
    <path id="Tracé_71" data-name="Tracé 71" d="M194.737,197.051a.616.616,0,0,1-.553-.327c-2.275-4.336-9.992-6.448-10.055-6.473a.649.649,0,0,1,.327-1.257c.339.088,8.321,2.262,10.86,7.089a.641.641,0,0,1-.277.855.578.578,0,0,1-.3.113Z" transform="translate(832.116 285.262)" fill="#231f20"/>
    <circle id="Ellipse_3" data-name="Ellipse 3" cx="4.663" cy="4.663" r="4.663" transform="translate(901.278 492.193)" fill="#231f20"/>
    <path id="Tracé_72" data-name="Tracé 72" d="M97.351,213.343a5.292,5.292,0,1,1,5.292-5.292,5.292,5.292,0,0,1-5.292,5.292Zm0-9.326a4.035,4.035,0,1,0,2.866,1.2,4.035,4.035,0,0,0-2.866-1.2Z" transform="translate(808.589 288.804)" fill="#231f20"/>
    <path id="Tracé_73" data-name="Tracé 73" d="M119.167,218.561H86.941a3.331,3.331,0,0,1-3.331-3.318,10.319,10.319,0,0,1,10.319-10.306s13.486-.591,20.374,3.444S122.624,218.561,119.167,218.561Z" transform="translate(806.419 289.355)" fill="#fff"/>
    <path id="Tracé_74" data-name="Tracé 74" d="M119.3,219.316H87.069a3.959,3.959,0,0,1-3.959-3.947,10.948,10.948,0,0,1,10.948-10.935c.528,0,13.725-.54,20.7,3.519,5.128,3,7.541,7.277,6.875,9.678a2.237,2.237,0,0,1-2.338,1.684Zm-23.5-13.662H94.083a9.678,9.678,0,0,0-9.716,9.678,2.7,2.7,0,0,0,2.7,2.69H119.3c.83,0,1.031-.427,1.119-.754.452-1.659-1.483-5.455-6.284-8.258C108.9,205.993,99.613,205.654,95.792,205.654Z" transform="translate(806.29 289.228)" fill="#231f20"/>
    <path id="Tracé_75" data-name="Tracé 75" d="M87.827,213.752a.49.49,0,0,1-.189,0,.628.628,0,0,1-.4-.792,15.56,15.56,0,0,1,7.164-8.446.628.628,0,0,1,.842.276.616.616,0,0,1-.277.842,14.567,14.567,0,0,0-6.536,7.717A.628.628,0,0,1,87.827,213.752Z" transform="translate(807.342 289.237)" fill="#231f20"/>
    <path id="Tracé_76" data-name="Tracé 76" d="M95.947,219.312a.628.628,0,0,1-.4-1.106s3.972-3.431,4.11-7.378a5.518,5.518,0,0,0-2.514-5.216.616.616,0,0,1-.277-.842.628.628,0,0,1,.842-.277,6.712,6.712,0,0,1,3.205,6.385c-.151,4.5-4.374,8.132-4.563,8.283A.616.616,0,0,1,95.947,219.312Z" transform="translate(809.428 289.232)" fill="#231f20"/>
    <rect id="Rectangle_7" data-name="Rectangle 7" width="43.287" height="38.649" transform="translate(993.797 289.13)" fill="#fff"/>
    <path id="Tracé_77" data-name="Tracé 77" d="M209.586,81.169H166.3a.641.641,0,0,1-.628-.628V41.828a.641.641,0,0,1,.628-.628h43.287a.628.628,0,0,1,.628.628V80.478a.628.628,0,0,1-.628.691Zm-42.659-1.257h42.03V42.457h-42.03Z" transform="translate(827.499 247.301)" fill="#d1d3d4"/>
    <path id="Tracé_78" data-name="Tracé 78" d="M178.962,66.636a.628.628,0,0,1-.415-.151l-7.5-6.636a.666.666,0,0,1-.214-.44.591.591,0,0,1,.176-.465l7.541-7.956a.616.616,0,0,1,.88,0,.628.628,0,0,1,0,.892l-7.114,7.541,7.076,6.284a.628.628,0,0,1-.415,1.093Z" transform="translate(828.824 249.768)" fill="#d1d3d4"/>
    <path id="Tracé_79" data-name="Tracé 79" d="M188.441,66.667a.653.653,0,0,1-.478-.214.628.628,0,0,1,0-.88l7.076-6.284-7.114-7.541a.631.631,0,1,1,.917-.867l7.541,7.956a.629.629,0,0,1,.163.465.6.6,0,0,1-.2.44l-7.541,6.687a.679.679,0,0,1-.364.239Z" transform="translate(833.172 249.737)" fill="#d1d3d4"/>
    <path id="Tracé_80" data-name="Tracé 80" d="M179.007,69a.616.616,0,0,1-.289-.075.641.641,0,0,1-.264-.855l9.427-18a.627.627,0,1,1,1.106.591l-9.414,18.049A.641.641,0,0,1,179.007,69Z" transform="translate(830.765 249.494)" fill="#d1d3d4"/>
    <path id="Tracé_81" data-name="Tracé 81" d="M209.586,46.6H166.3a.641.641,0,0,1-.628-.628.628.628,0,0,1,.628-.628h43.287a.628.628,0,0,1,0,1.257Z" transform="translate(827.499 248.365)" fill="#d1d3d4"/>
    <rect id="Rectangle_8" data-name="Rectangle 8" width="70.298" height="65.195" transform="translate(1128.46 300.894)" fill="#fff"/>
    <path id="Tracé_82" data-name="Tracé 82" d="M343.736,117.012h-70.3a.628.628,0,0,1-.628-.628V51.188a.628.628,0,0,1,.628-.628h70.3a.628.628,0,0,1,.628.628v65.195A.628.628,0,0,1,343.736,117.012Zm-69.669-1.257h69.041V51.817H274.067Z" transform="translate(855.022 249.706)" fill="#d1d3d4"/>
    <path id="Tracé_83" data-name="Tracé 83" d="M343.736,56.947h-70.3a.628.628,0,1,1,0-1.257h70.3a.641.641,0,0,1,.628.628A.628.628,0,0,1,343.736,56.947Z" transform="translate(855.022 251.024)" fill="#d1d3d4"/>
    <path id="Tracé_84" data-name="Tracé 84" d="M286.883,61.1H278.3a.628.628,0,0,1,0-1.257h8.585a.628.628,0,1,1,0,1.257Z" transform="translate(856.27 252.09)" fill="#d1d3d4"/>
    <path id="Tracé_85" data-name="Tracé 85" d="M305.9,61.1H288.768a.628.628,0,0,1,0-1.257H305.9a.628.628,0,1,1,0,1.257Z" transform="translate(858.96 252.09)" fill="#d1d3d4"/>
    <path id="Tracé_86" data-name="Tracé 86" d="M310,65.717H292.868a.628.628,0,0,1,0-1.257H310a.628.628,0,0,1,0,1.257Z" transform="translate(860.013 253.277)" fill="#d1d3d4"/>
    <path id="Tracé_87" data-name="Tracé 87" d="M288.523,65.717h-8.585a.641.641,0,0,1-.628-.628.628.628,0,0,1,.628-.628h8.585a.628.628,0,0,1,0,1.257Z" transform="translate(856.691 253.277)" fill="#d1d3d4"/>
    <path id="Tracé_88" data-name="Tracé 88" d="M288.436,70.327h-6.888a.628.628,0,0,1,0-1.257h6.888a.628.628,0,0,1,0,1.257Z" transform="translate(857.105 254.461)" fill="#d1d3d4"/>
    <path id="Tracé_89" data-name="Tracé 89" d="M313.321,70.327H291.878a.628.628,0,1,1,0-1.257h21.442a.628.628,0,0,1,0,1.257Z" transform="translate(859.759 254.461)" fill="#d1d3d4"/>
    <path id="Tracé_90" data-name="Tracé 90" d="M291.738,74.947h-8.61a.628.628,0,0,1,0-1.257h8.585a.629.629,0,0,1,.025,1.257Z" transform="translate(857.511 255.648)" fill="#d1d3d4"/>
    <path id="Tracé_91" data-name="Tracé 91" d="M317.681,74.947h-25.5a.641.641,0,0,1-.629-.628.629.629,0,0,1,.629-.628h25.5a.628.628,0,1,1,0,1.257Z" transform="translate(859.836 255.648)" fill="#d1d3d4"/>
    <path id="Tracé_92" data-name="Tracé 92" d="M289.883,79.567H281.3a.628.628,0,0,1,0-1.257h8.585a.628.628,0,0,1,0,1.257Z" transform="translate(857.041 256.835)" fill="#d1d3d4"/>
    <path id="Tracé_93" data-name="Tracé 93" d="M304.614,79.567H290.788a.628.628,0,0,1,0-1.257h13.826a.628.628,0,0,1,.628.628.641.641,0,0,1-.628.628Z" transform="translate(859.479 256.835)" fill="#d1d3d4"/>
    <path id="Tracé_94" data-name="Tracé 94" d="M319.814,79.567H305.988a.628.628,0,0,1,0-1.257h13.826a.628.628,0,0,1,0,1.257Z" transform="translate(863.383 256.835)" fill="#d1d3d4"/>
    <path id="Tracé_95" data-name="Tracé 95" d="M284.292,84.177h-2.954a.628.628,0,1,1,0-1.257h2.954a.628.628,0,0,1,0,1.257Z" transform="translate(857.051 258.019)" fill="#d1d3d4"/>
    <path id="Tracé_96" data-name="Tracé 96" d="M305.408,84.177H287.7a.628.628,0,0,1-.628-.628.641.641,0,0,1,.628-.628h17.71a.641.641,0,0,1,.628.628A.628.628,0,0,1,305.408,84.177Z" transform="translate(858.685 258.019)" fill="#d1d3d4"/>
    <path id="Tracé_97" data-name="Tracé 97" d="M308.348,84.177h-4.94a.628.628,0,0,1,0-1.257h4.94a.641.641,0,0,1,.628.628A.628.628,0,0,1,308.348,84.177Z" transform="translate(862.721 258.019)" fill="#d1d3d4"/>
    <path id="Tracé_98" data-name="Tracé 98" d="M285.976,88.8h-4.638a.628.628,0,1,1,0-1.257h4.638a.628.628,0,1,1,0,1.257Z" transform="translate(857.051 259.206)" fill="#d1d3d4"/>
    <path id="Tracé_99" data-name="Tracé 99" d="M309.534,88.8H288.518a.628.628,0,0,1,0-1.257h21.015a.628.628,0,1,1,0,1.257Z" transform="translate(858.896 259.206)" fill="#d1d3d4"/>
    <path id="Tracé_100" data-name="Tracé 100" d="M315.473,88.8h-8.585a.628.628,0,1,1,0-1.257h8.585a.628.628,0,0,1,0,1.257Z" transform="translate(863.615 259.206)" fill="#d1d3d4"/>
    <path id="Tracé_101" data-name="Tracé 101" d="M284.291,93.417h-4.562a.641.641,0,0,1-.628-.628.628.628,0,0,1,.628-.628h4.562a.628.628,0,0,1,.628.628A.641.641,0,0,1,284.291,93.417Z" transform="translate(856.638 260.392)" fill="#d1d3d4"/>
    <path id="Tracé_102" data-name="Tracé 102" d="M307.475,93.417h-19.9a.628.628,0,0,1,0-1.257h19.9a.628.628,0,0,1,.628.628A.641.641,0,0,1,307.475,93.417Z" transform="translate(858.654 260.392)" fill="#d1d3d4"/>
    <path id="Tracé_103" data-name="Tracé 103" d="M288.313,98.027h-8.585a.628.628,0,0,1-.628-.628.641.641,0,0,1,.628-.628h8.585a.628.628,0,0,1,0,1.257Z" transform="translate(856.638 261.577)" fill="#d1d3d4"/>
    <path id="Tracé_104" data-name="Tracé 104" d="M326.842,74.947H315.228a.628.628,0,1,1,0-1.257h11.614a.628.628,0,0,1,.628.628.641.641,0,0,1-.628.628Z" transform="translate(865.757 255.648)" fill="#d1d3d4"/>
    <path id="Tracé_105" data-name="Tracé 105" d="M311.832,61.113h-6.008a.628.628,0,0,1-.44-.767.616.616,0,0,1,.691-.465h19.344a.666.666,0,0,1,.628.628.628.628,0,0,1-.628.628C319.021,61.113,314.723,61.113,311.832,61.113Z" transform="translate(863.384 252.099)" fill="#d1d3d4"/>
    <path id="Tracé_106" data-name="Tracé 106" d="M313.9,93.417h-8.685a.628.628,0,0,1,0-1.257H313.9a.628.628,0,1,1,0,1.257Z" transform="translate(863.185 260.392)" fill="#d1d3d4"/>
    <path id="Tracé_107" data-name="Tracé 107" d="M297.6,98.027h-6.4a.628.628,0,0,1-.628-.628.641.641,0,0,1,.628-.628h6.4a.641.641,0,0,1,.628.628A.628.628,0,0,1,297.6,98.027Z" transform="translate(859.584 261.577)" fill="#d1d3d4"/>
    <path id="Tracé_108" data-name="Tracé 108" d="M313.4,98.027H298.218a.628.628,0,1,1,0-1.257H313.4a.628.628,0,0,1,0,1.257Z" transform="translate(861.387 261.577)" fill="#d1d3d4"/>
  </g>
</svg>
