<svg xmlns="http://www.w3.org/2000/svg" width="352.343" height="353.858" viewBox="0 0 352.343 353.858">
  <g id="Groupe_6" data-name="Groupe 6" transform="translate(-169.411 -966.258)">
    <ellipse id="Ellipse_4" data-name="Ellipse 4" cx="165.951" cy="10.634" rx="165.951" ry="10.634" transform="translate(169.411 1296.401)" fill="#d1d3d4"/>
    <path id="Tracé_118" data-name="Tracé 118" d="M272.3,194.411a96.592,96.592,0,0,0,9.5-6.476c6.508-5.037,8.443-9.37,10.33-17.19,1.263-5.277-2.718-10.25-6.636-14.008s-8.379-7.915-8.443-13.336c0-4.174,2.607-7.819,4.19-11.689,8.363-20.372-14.887-29.359-19.541-46.373s-10.138-31.006-30.974-25.585c-5.053,1.3-10.058,3.022-15.255,3.2-4.8.24-9.5-.768-14.264-.832a37.066,37.066,0,0,0-32.541,19.349c-2.542,4.8-1.039,11.193-3.422,14.983-6.252,9.946-21.172,7.516-18.005,23.778,1.135,5.789,3.614,11.881,1.407,17.366-2.814,6.988-11.5,9.083-17.59,13.56-9.93,7.324-12.521,22.067-7.771,33.468s15.463,19.509,27.1,23.65,24.194,4.8,36.555,4.8C216.429,213.184,247.339,209.394,272.3,194.411Z" transform="translate(89.702 945.186)" fill="#fff"/>
    <path id="Tracé_119" data-name="Tracé 119" d="M187.673,214.115h-.432c-12.121,0-24.945-.608-36.779-4.8-13.08-4.653-23.122-13.416-27.536-23.986-5.165-12.409-1.727-27.184,8-34.348a55.136,55.136,0,0,1,6.4-3.854c4.653-2.511,9.067-4.8,10.874-9.387,1.6-4.062.528-8.651-.56-13.08-.3-1.3-.624-2.59-.863-3.87-2.095-10.714,3.342-13.752,9.1-16.982,3.326-1.855,6.748-3.774,9-7.34a15.7,15.7,0,0,0,1.519-6.716,21.379,21.379,0,0,1,1.855-8.2A37.85,37.85,0,0,1,201.009,61.8h.432a61.225,61.225,0,0,1,6.22.432,55.794,55.794,0,0,0,8,.384,54.369,54.369,0,0,0,11.721-2.335l3.406-.927c21.284-5.469,27.008,8.619,31.853,26.177,1.727,6.284,6.172,11.561,10.474,16.662,7.068,8.4,14.392,17.078,9.035,30.126a31.171,31.171,0,0,1-1.6,3.294,18.2,18.2,0,0,0-2.59,8.091c0,5.021,4.285,9.067,8,12.649l.208.176c5.677,5.437,7.9,10.234,6.828,14.711-1.919,8-3.9,12.409-10.586,17.59a97.691,97.691,0,0,1-9.594,6.524h0C251.811,207.959,223.923,214.115,187.673,214.115ZM201.041,63.18a36.347,36.347,0,0,0-31.47,18.949,20.212,20.212,0,0,0-1.695,7.676,16.631,16.631,0,0,1-1.743,7.356c-2.447,3.87-6.044,5.885-9.594,7.835-5.517,3.086-10.282,5.757-8.4,15.415.256,1.263.56,2.527.863,3.806,1.135,4.653,2.3,9.482.5,13.976-2.015,5.005-6.86,7.612-11.545,10.138a53.764,53.764,0,0,0-6.252,3.726c-9.211,6.8-12.441,20.788-7.532,32.621,4.269,10.25,13.992,18.725,26.672,23.234,11.641,4.142,24.338,4.8,36.315,4.8h.432c35.979,0,63.627-6.092,84.527-18.629h0a97.55,97.55,0,0,0,9.418-6.4c6.4-4.909,8.235-9.147,10.058-16.79.943-3.918-1.151-8.267-6.4-13.3l-.208-.176c-3.934-3.774-8.411-8-8.459-13.688a19.62,19.62,0,0,1,2.734-8.763c.528-1.055,1.055-2.127,1.5-3.2,5.005-12.217-1.711-20.18-8.811-28.623-4.4-5.213-8.955-10.618-10.762-17.222-4.8-17.4-10.058-30.286-30.078-25.137-1.135.288-2.255.592-3.374.911a56.59,56.59,0,0,1-12.041,2.4,58.369,58.369,0,0,1-8.219-.4c-2-.208-4.062-.4-6.092-.432Z" transform="translate(89.436 944.942)" fill="#231f20"/>
    <path id="Tracé_120" data-name="Tracé 120" d="M125.54,209.144s13.048-70.359,26.1-82.272,47.668-11.913,65.818-12.489,44.774,5.677,56.751,17.59,24.386,87.357,24.386,87.357l-24.961-2.846,15.895,41.991s-55.04,29.615-80.577,27.84S143.13,250,143.13,250l2.271-46.533Z" transform="translate(92.435 978.601)" fill="#68a9fd"/>
    <path id="Tracé_121" data-name="Tracé 121" d="M216.7,195.666h0a.72.72,0,0,1-.688-.768c1.119-21.779-6.716-64.091-6.8-64.506a.724.724,0,1,1,1.423-.272c0,.432,8,42.9,6.828,64.858a.719.719,0,0,1-.768.688Z" transform="translate(142.554 987.697)" fill="#231f20"/>
    <path id="Tracé_122" data-name="Tracé 122" d="M153.5,181.561a.736.736,0,0,1-.736-.72c0-.32-.5-31.55,5.133-51.842a.752.752,0,0,1,.9-.512.72.72,0,0,1,.512.9c-5.581,20.1-5.085,51.17-5.085,51.426a.736.736,0,0,1-.7.752Z" transform="translate(108.737 987.059)" fill="#231f20"/>
    <path id="Tracé_123" data-name="Tracé 123" d="M204.829,145l2.67,26.576S206.2,186.7,189.59,183.7a33.58,33.58,0,0,1-23.282-17.046c-.784-1.6-.272-5.085-.368-6.844l-.848-15.591c-.416-7.819-1.519-15.991-1.279-23.778s0-16.087.3-24.21A1.919,1.919,0,0,1,164.5,94.9a1.711,1.711,0,0,1,1.039-.448,16.71,16.71,0,0,1,6.78.176,59.436,59.436,0,0,0-1.951-16.358,31.822,31.822,0,0,1,10.506,13.656,83.742,83.742,0,0,1,16.5.816,18.117,18.117,0,0,0-1.5-11.193,82.655,82.655,0,0,1,6.4,9.051c0,.464,7.4,1.5,7.915,1.039,1.279-1.135.863-8.795,1.023-10.618a37.338,37.338,0,0,1,7.484,16.326c1.279,5.453,1.135,28.016,1.167,33.708C219.844,139.45,213.9,146.182,204.829,145Z" transform="translate(115.342 956.988)" fill="#fff"/>
    <path id="Tracé_124" data-name="Tracé 124" d="M194,185.1a24.1,24.1,0,0,1-4.285-.416,34.044,34.044,0,0,1-23.73-17.462,12.361,12.361,0,0,1-.48-5.181V160.1l-.832-15.575c-.144-2.59-.368-5.261-.576-7.851a144.437,144.437,0,0,1-.72-15.991c.112-3.806.128-7.723.144-11.5,0-4.158,0-8.459.16-12.793a2.686,2.686,0,0,1,.576-1.823,2.623,2.623,0,0,1,1.455-.656,17.494,17.494,0,0,1,6.188,0,58.767,58.767,0,0,0-1.935-15.287.736.736,0,0,1,1.151-.768,32.461,32.461,0,0,1,10.538,13.5,85.839,85.839,0,0,1,15.431.736,17.589,17.589,0,0,0-1.6-10.042.736.736,0,0,1,1.231-.784,82,82,0,0,1,6.3,9.019,31.583,31.583,0,0,0,6.956.911c.624-.911.656-5.725.656-7.58V81.126a.72.72,0,0,1,.5-.624.783.783,0,0,1,.784.208c3.486,4,5.9,9.291,7.628,16.662,1.151,4.8,1.167,22.579,1.183,31.1v2.766a15.175,15.175,0,0,1-4.8,11.657,13.08,13.08,0,0,1-10.026,3.1l2.574,25.7a15.8,15.8,0,0,1-5.6,10.57A14.28,14.28,0,0,1,194,185.1ZM168.746,95.182a15.159,15.159,0,0,0-2.83.256,1.343,1.343,0,0,0-.64.224,1.439,1.439,0,0,0-.176.863c-.16,4.222-.16,8.523-.176,12.665,0,3.79,0,7.708-.144,11.529a146.156,146.156,0,0,0,.72,15.847c.208,2.591.432,5.277.576,7.883l.832,15.575v2.063a11.961,11.961,0,0,0,.32,4.509,32.573,32.573,0,0,0,22.739,16.646c5.005.911,9.035.208,12.009-2.063a14.536,14.536,0,0,0,5.037-9.387l-2.654-26.465a.688.688,0,0,1,.224-.592.767.767,0,0,1,.608-.208,11.913,11.913,0,0,0,9.77-2.638,13.816,13.816,0,0,0,4.349-10.57v-2.766c0-7.8,0-26.065-1.151-30.766a38.809,38.809,0,0,0-6.076-14.5V83.7c0,4.365-.128,7.771-1.215,8.747s-7.5-.368-8.427-.736a1.055,1.055,0,0,1-.656-.544c-1.1-1.823-2.287-3.614-3.534-5.341a18.741,18.741,0,0,1,.1,7.308.72.72,0,0,1-.815.592,83.679,83.679,0,0,0-16.374-.8.672.672,0,0,1-.7-.464,31.07,31.07,0,0,0-8.6-12.025A61.179,61.179,0,0,1,173.3,94.83a.751.751,0,0,1-.288.56.72.72,0,0,1-.624.144A15.462,15.462,0,0,0,168.746,95.182Z" transform="translate(115.095 956.658)" fill="#231f20"/>
    <path id="Tracé_125" data-name="Tracé 125" d="M199.74,135.239s-10.762,1.487-18.373-5.053-7.276-13.9-7.276-13.9,12.409,6.732,24.562,5.869Z" transform="translate(121.519 979.764)" fill="#231f20"/>
    <path id="Tracé_126" data-name="Tracé 126" d="M197.178,136.328a24.8,24.8,0,0,1-15.991-5.373c-7.787-6.684-7.532-14.136-7.516-14.392a.7.7,0,0,1,1.039-.592c.128,0,12.377,6.636,24.178,5.789a.7.7,0,0,1,.752.64l1.087,13.08a.72.72,0,0,1-.608.752,23.977,23.977,0,0,1-2.942.1Zm-22.067-18.661a19.093,19.093,0,0,0,6.956,12.169c6.22,5.341,14.743,5.133,17.158,4.957l-.959-11.705C188.255,123.648,178.373,119.266,175.111,117.667Z" transform="translate(121.266 979.523)" fill="#231f20"/>
    <path id="Tracé_127" data-name="Tracé 127" d="M185.4,113.546a19.7,19.7,0,0,1-2.654-.192.72.72,0,0,1-.592-.816.7.7,0,0,1,.816-.592c1.5.24,5.693.5,6.988-1.2.88-1.183-3.374-8-8-13.528a.705.705,0,1,1,1.1-.88c2.367,2.91,9.962,12.617,8,15.255C189.873,113.194,187.347,113.546,185.4,113.546Z" transform="translate(126.141 967.654)" fill="#231f20"/>
    <path id="Tracé_128" data-name="Tracé 128" d="M175.71,99.609a25.2,25.2,0,0,0-5.8-8.555c-2.67-2.223-6.7-3.2-9.594-1.391-3.2,2-4,6.4-3.63,10.266a41.88,41.88,0,0,0,3.518,12.537,15.047,15.047,0,0,0,4.269,6.3,5.9,5.9,0,0,0,7.116.336" transform="translate(111.041 963.249)" fill="#fff"/>
    <path id="Tracé_129" data-name="Tracé 129" d="M168.746,121.2a7.755,7.755,0,0,1-4.509-1.6,15.767,15.767,0,0,1-4.493-6.6,42.2,42.2,0,0,1-3.582-12.792c-.224-2.431-.3-8.347,3.982-10.97,3.47-2.127,7.883-.736,10.506,1.455a25.809,25.809,0,0,1,6,8.795.736.736,0,1,1-1.311.64,24.706,24.706,0,0,0-5.629-8.315c-2.239-1.871-5.949-3.086-8.795-1.327-3.694,2.255-3.454,7.9-3.294,9.594a40.313,40.313,0,0,0,3.47,12.313,14.392,14.392,0,0,0,4.046,6.012,5.2,5.2,0,0,0,6.2.352.72.72,0,0,1,1.023.1.736.736,0,0,1-.08,1.023A5.453,5.453,0,0,1,168.746,121.2Z" transform="translate(110.729 962.924)" fill="#231f20"/>
    <ellipse id="Ellipse_5" data-name="Ellipse 5" cx="1.567" cy="3.966" rx="1.567" ry="3.966" transform="translate(297.129 1059.66)" fill="#231f20"/>
    <ellipse id="Ellipse_6" data-name="Ellipse 6" cx="1.567" cy="3.966" rx="1.567" ry="3.966" transform="translate(320.811 1058.812)" fill="#231f20"/>
    <path id="Tracé_130" data-name="Tracé 130" d="M213.837,159.721s6.86-19.317,3.566-24.658-12.457-10.41-14.232-15.239,1.263-16.518-2.543-17.8-6.6,9.594-3.806,18.293c0,0-4.333-5.325-4.333-10.41s3.31-11.433-.256-12.968-9.147,10.17-7.867,19.573,13.208,22.611,12.457,25.153-66.073,65.9-71.958,76.275c-5.469,9.594-2.063,31.23,16.742,28.943S201.141,192.5,213.837,159.721Z" transform="translate(90.615 968.091)" fill="#fff"/>
    <path id="Tracé_131" data-name="Tracé 131" d="M139.112,248.049a15.511,15.511,0,0,1-13.576-7.068,24.146,24.146,0,0,1-1.071-23.122c3.678-6.4,28.959-31.981,49.267-52.593,11.353-11.513,22.083-22.387,22.691-23.586.176-.7-2.063-4.174-3.87-6.972-3.5-5.4-7.867-12.153-8.619-17.83-1.039-7.66,2.383-17.062,5.9-19.732a2.862,2.862,0,0,1,2.974-.608c2.894,1.247,2.159,4.8,1.439,8.379a27.025,27.025,0,0,0-.736,5.261,14.7,14.7,0,0,0,1.983,6.6c-.832-6.028.5-12.153,2.7-14.392a2.782,2.782,0,0,1,2.942-.832c2.75.911,2.622,5.437,2.495,10.2a25.073,25.073,0,0,0,.512,8c.88,2.4,3.966,5.085,6.956,7.676a36.907,36.907,0,0,1,7.212,7.436c3.438,5.565-3.2,24.482-3.5,25.281h0c-6.124,15.783-19.189,36.938-33.98,55.216-15.847,19.525-30.03,31.342-38.905,32.413a21.954,21.954,0,0,1-2.814.272ZM191.881,97.817a2.031,2.031,0,0,0-1.151.48c-2.862,2.175-6.4,10.858-5.341,18.389.72,5.341,5.165,12.217,8.411,17.238,2.99,4.621,4.413,6.908,4.014,8.219s-6.572,7.468-23.027,24.146C155.6,185.7,129.326,212.31,125.744,218.579a22.627,22.627,0,0,0,1.039,21.6c2.271,3.406,6.716,7.26,15,6.252,18.533-2.255,59.165-54.368,71.686-86.7,1.887-5.293,6.188-19.892,3.63-23.986a35.885,35.885,0,0,0-6.924-7.1c-3.2-2.83-6.4-5.517-7.372-8.283a26.209,26.209,0,0,1-.608-8.555c.112-3.854.24-8.219-1.487-8.779a1.386,1.386,0,0,0-1.439.48c-2.367,2.335-3.534,10.394-1.439,16.886a.736.736,0,0,1-1.263.688c-.176-.224-4.477-5.6-4.477-10.874a27.9,27.9,0,0,1,.768-5.549c.752-3.71,1.087-6.028-.576-6.748a1.071,1.071,0,0,0-.416-.1Zm22.259,62.172Z" transform="translate(90.328 967.823)" fill="#231f20"/>
    <path id="Tracé_132" data-name="Tracé 132" d="M190.836,156.779s-6.86-19.317-3.486-24.69c3.022-4.8,8.411-7.676,12.089-11.977,3.886-4.557,3.342-12.489,5.549-18.117.448-1.151,1.423-2.527,2.59-2.095a2.287,2.287,0,0,1,1.087,1.135,36.058,36.058,0,0,1,3.39,11.05,50.687,50.687,0,0,1,1.215,10.042,24.913,24.913,0,0,1-1.791,8.891c-.7,1.791-4.142,5.693-3.55,7.676.768,2.542,5.085,15.511,12.2,24.4s43.479,43.8,48.58,65.929c2.7,11.657.943,25.681-17.862,23.394S203.548,189.56,190.836,156.779Z" transform="translate(128.904 969.897)" fill="#fff"/>
    <path id="Tracé_133" data-name="Tracé 133" d="M254.912,253.695a34.6,34.6,0,0,1-3.95-.24c-19.317-2.351-47.972-63.963-60.525-96.152h0c-.288-.8-6.94-19.7-3.486-25.281a31.87,31.87,0,0,1,7-7.276,41.865,41.865,0,0,0,5.149-4.8c2.255-2.638,2.974-6.668,3.646-10.554a39.386,39.386,0,0,1,1.775-7.34c.608-1.6,1.887-3.2,3.534-2.527A2.99,2.99,0,0,1,209.531,101a35.884,35.884,0,0,1,3.454,11.193,49.173,49.173,0,0,1,1.231,10.2,25.474,25.474,0,0,1-1.823,9.147,17.73,17.73,0,0,1-1.407,2.415c-.975,1.5-2.431,3.774-2.127,4.8.176.592,4.429,14.615,12.057,24.146,1.5,1.871,4.3,4.893,7.851,8.731,13.768,14.919,36.778,39.865,40.888,57.486,1.167,5.053,2.351,14.392-2.75,20.068C264.2,252.192,260.189,253.695,254.912,253.695Zm-63.115-96.9c14.392,37.13,42.071,93.114,59.341,95.208,6.748.816,11.673-.448,14.663-3.774,4.669-5.181,3.518-13.96,2.415-18.741-3.982-17.174-27.824-43-40.616-56.815-3.566-3.87-6.4-6.924-7.9-8.827-7.8-9.754-12.153-23.986-12.329-24.642-.5-1.6.991-3.966,2.3-6a15.688,15.688,0,0,0,1.279-2.143,24.45,24.45,0,0,0,1.727-8.651,50.433,50.433,0,0,0-1.2-9.9,35.178,35.178,0,0,0-3.294-10.81c-.208-.352-.448-.72-.72-.816-.64-.24-1.359.9-1.6,1.679a37.837,37.837,0,0,0-1.695,7.068c-.72,4.078-1.455,8.3-3.982,11.193a43.272,43.272,0,0,1-5.309,4.973,29.454,29.454,0,0,0-6.7,6.908C185.624,136.9,189.926,151.547,191.8,156.792Z" transform="translate(128.63 969.629)" fill="#231f20"/>
    <path id="Tracé_134" data-name="Tracé 134" d="M219.234,229.171s-69.8-65.818-99.3-52.769S91,226.9,106.884,248.455s74.9,39.145,123.7,34.62,116.3-22.707,129.364-39.721,3.39-45.4-19.86-52.769S257.244,230.866,219.234,229.171Z" transform="translate(74.776 1014.749)" fill="#231f20"/>
    <path id="Tracé_135" data-name="Tracé 135" d="M215.21,284.73c-44.23,0-93.929-15.639-108.625-35.6-9.706-13.16-13.368-31.438-9.355-46.549a39.177,39.177,0,0,1,22.691-26.576c29.1-12.793,94.985,48.164,99.862,52.769,19.189.752,44.342-11.305,66.585-21.939,21.859-10.442,42.487-20.34,54.192-16.614a37.85,37.85,0,0,1,24.53,24.77c3.326,10.57,1.743,21.172-4.318,29.1-12.984,16.918-80.465,35.387-129.86,39.977C225.748,284.506,220.551,284.73,215.21,284.73ZM129.085,175.658a21.172,21.172,0,0,0-8.6,1.6A37.818,37.818,0,0,0,98.59,202.842c-3.9,14.727-.32,32.541,9.131,45.366,16.215,22.019,76.02,38.7,123.048,34.332,49.123-4.573,116.108-22.8,128.885-39.449,5.789-7.548,7.276-17.686,4.094-27.808a36.411,36.411,0,0,0-23.618-23.858c-11.194-3.534-31.55,6.22-53.153,16.55-22.5,10.746-47.972,22.931-67.513,22.067a.72.72,0,0,1-.448-.192C218.376,229.338,161.034,175.658,129.085,175.658Z" transform="translate(74.515 1014.486)" fill="#231f20"/>
    <path id="Tracé_136" data-name="Tracé 136" d="M153.667,261.679l45.142,21.779L219.021,232.4s-64.682-45.413-80.577-32.333S148.55,257.713,153.667,261.679Z" transform="translate(97.12 1028.535)" fill="#231f20"/>
    <path id="Tracé_137" data-name="Tracé 137" d="M199.069,284.39a.656.656,0,0,1-.3,0l-45.142-21.779-.128-.08c-4.078-3.2-20.324-30.094-20.564-48.692-.1-6.4,1.711-11.05,5.325-14.024,16.119-13.24,78.77,30.382,81.424,32.3a.72.72,0,0,1,.256.832l-20.212,51.01a.72.72,0,0,1-.656.432Zm-44.774-23.075,44.39,21.411L218.417,232.9c-5.8-4.014-64.65-44.07-79.266-31.981-3.2,2.686-4.893,7.036-4.8,12.92C134.642,231.493,150.361,258.118,154.295,261.316Z" transform="translate(96.861 1028.306)" fill="#231f20"/>
    <path id="Tracé_138" data-name="Tracé 138" d="M185.51,260.768s30.846,10.234,59.565,5.949c32.349-4.8,41.991-19.285,25.585-32.333s-83.407-1.983-83.407-1.983Z" transform="translate(128.361 1046.699)" fill="#68a9fd"/>
    <path id="Tracé_139" data-name="Tracé 139" d="M230.56,268.778a162.526,162.526,0,0,1-45.014-7.036.736.736,0,0,1-.5-.736l1.711-28.367a.72.72,0,0,1,.608-.672c2.734-.464,67.465-10.97,83.983,2.127,6.508,5.165,9.211,10.7,7.8,15.991-2.239,8.347-14.52,14.791-33.692,17.59a101.829,101.829,0,0,1-14.9,1.1Zm-43.99-8.251c4.222,1.311,32.525,9.594,58.718,5.757,18.565-2.766,30.382-8.811,32.477-16.582,1.263-4.685-1.263-9.674-7.292-14.392-15.223-12.073-75.684-2.974-82.256-1.935Z" transform="translate(128.085 1046.412)" fill="#231f20"/>
    <path id="Tracé_140" data-name="Tracé 140" d="M175.94,257.184s26.64,8.4,31.757-6.924-5.965-16.742-19.86-19.86Z" transform="translate(122.628 1048.124)" fill="#fff"/>
    <path id="Tracé_141" data-name="Tracé 141" d="M191.18,260.414h-1.023A58.147,58.147,0,0,1,176,258.1a.7.7,0,0,1-.448-.4.64.64,0,0,1,0-.592l11.945-26.72a.72.72,0,0,1,.832-.416l2.4.528c8.187,1.807,15.271,3.358,18.053,8.251,1.6,2.942,1.6,6.876,0,12.009C206.531,257.216,200.5,260.414,191.18,260.414Zm-13.96-3.486c4.4,1.2,25.713,6.4,30.046-6.684,1.6-4.8,1.6-8.283.192-10.842-2.463-4.317-9.259-5.821-17.11-7.548l-1.823-.4Z" transform="translate(122.355 1047.853)" fill="#231f20"/>
    <path id="Tracé_142" data-name="Tracé 142" d="M162.674,247.788a.88.88,0,0,1-.384-.112c-.336-.224-34.652-21.364-54.368-30.174a.727.727,0,1,1,.592-1.327c19.828,8.843,54.208,30.046,54.56,30.254a.72.72,0,0,1,.24,1.007.752.752,0,0,1-.64.352Z" transform="translate(81.621 1039.563)" fill="#fff"/>
    <path id="Tracé_143" data-name="Tracé 143" d="M138.036,228.4s-14.392-2.83-18.165,8,0,31.981,9.594,35.739,24.4-11.625,30.078-13.048,20.26-7.212,20.26-7.212Z" transform="translate(88.174 1046.723)" fill="#68a9fd"/>
    <path id="Tracé_144" data-name="Tracé 144" d="M133.054,273.653a9.867,9.867,0,0,1-3.534-.624c-10.314-3.95-13.816-25.745-10.074-36.667,3.854-11.193,18.837-8.443,18.981-8.427l.224.08,41.816,23.426a.672.672,0,0,1,.368.688.72.72,0,0,1-.448.624c-.608.24-14.7,5.837-20.356,7.26-1.743.432-4.557,2.383-7.835,4.653C146.31,268.744,139.21,273.653,133.054,273.653Zm1.183-44.582c-4.365,0-11.193,1.135-13.416,7.771-1.743,5.133-1.807,13.032-.144,20.132,1.807,7.755,5.229,13.112,9.371,14.7,6.108,2.335,14.536-3.518,21.316-8.219,3.39-2.335,6.316-4.365,8.315-4.8,4.525-1.135,14.919-5.133,18.725-6.636l-40.36-22.595a24.665,24.665,0,0,0-3.806-.352Z" transform="translate(87.911 1046.462)" fill="#231f20"/>
    <path id="Tracé_145" data-name="Tracé 145" d="M201.492,254.558h-.24a.72.72,0,0,1-.448-.927l4.605-13.4c-3.326-3.422-32.3-33.181-51.97-47.62a.726.726,0,0,1,.864-1.167c20.884,15.319,52.146,47.764,52.465,48.1a.7.7,0,0,1,.16.736l-4.8,13.832a.72.72,0,0,1-.64.448Z" transform="translate(108.973 1024.701)" fill="#fff"/>
    <path id="Tracé_146" data-name="Tracé 146" d="M188.221,112.916a21.06,21.06,0,0,1-10.458-2.83.688.688,0,0,1-.208-.975.7.7,0,0,1,.975-.208,18.949,18.949,0,0,0,18.565.256.705.705,0,0,1,.688,1.231,19.429,19.429,0,0,1-9.562,2.527Z" transform="translate(123.523 975.271)" fill="#231f20"/>
    <path id="Tracé_147" data-name="Tracé 147" d="M237.282,55.868a21.38,21.38,0,0,0-8.523,6.524c-10.458,13.32-3.71,28.415,4.589,40.936,8.923,13.464,29.871,12.233,44.15,6.924,6.716,8.811,20.356,12.425,32.221,9.594A38.745,38.745,0,0,0,335,99.459c2.75,4.8,10.33,6.6,16.39,5.021,21.156-5.5,24.29-32.173,8.347-43.734-4.381-3.2-11.625-4.078-15.7-.608-1.023-5.821-6.588-12.185-13.16-14.392-1.9-.624-19.349-1.215-17.862.863-4.957-6.94-14.663-10.89-24.242-11.05a49.315,49.315,0,0,0-26.608,8A35.051,35.051,0,0,0,250.97,53.9a29.183,29.183,0,0,0-13.688,1.967Z" transform="translate(151.073 931.402)" fill="#fff"/>
    <path id="Tracé_148" data-name="Tracé 148" d="M301.85,121.837c-9.674,0-19.061-3.838-24.338-10.362-15.511,5.581-35.9,5.629-44.55-7.436-7.34-11.1-15.815-27.536-4.541-41.928a21.987,21.987,0,0,1,8.827-6.764h0a29.807,29.807,0,0,1,13.64-2.031,36.523,36.523,0,0,1,11.193-10.2,50.626,50.626,0,0,1,27.04-8c9.962.176,19.109,4.142,24.162,10.442.864-.416,3.022-.863,8.763-.847a55.327,55.327,0,0,1,9.419.624,21.507,21.507,0,0,1,13.416,13.72c4.589-2.91,11.481-1.711,15.671,1.327A25.777,25.777,0,0,1,370.5,85.97a24.722,24.722,0,0,1-18.581,19.6c-5.613,1.455-12.968.208-16.486-4.238a39.369,39.369,0,0,1-25.185,19.557A35.18,35.18,0,0,1,301.85,121.837Zm-24.066-12.121a.816.816,0,0,1,.64.32c6.3,8.251,19.493,12.153,31.39,9.259A37.786,37.786,0,0,0,334.567,99.37a.8.8,0,0,1,.7-.448.815.815,0,0,1,.72.4c2.654,4.669,10.106,6.044,15.479,4.653a23.091,23.091,0,0,0,17.4-18.357,24.13,24.13,0,0,0-9.307-23.986c-4.03-2.926-10.906-3.886-14.711-.64a.816.816,0,0,1-.8.144.8.8,0,0,1-.512-.608c-1.007-5.709-6.556-11.737-12.617-13.7-1.871-.624-14.663-.879-16.822,0a.8.8,0,0,1-1.455.512c-4.525-6.4-13.784-10.554-23.6-10.714a48.852,48.852,0,0,0-26.161,7.9,34.364,34.364,0,0,0-10.906,10.106.848.848,0,0,1-.736.368,28.175,28.175,0,0,0-13.368,1.871,20.26,20.26,0,0,0-8.187,6.284c-10.522,13.4-3.054,28.415,4.621,39.977,8.267,12.489,28.192,12.185,43.175,6.6a.911.911,0,0,1,.3-.016Z" transform="translate(150.788 931.138)" fill="#d1d3d4"/>
    <path id="Tracé_149" data-name="Tracé 149" d="M258.776,92.465a11.929,11.929,0,0,1,5.821-.5,8.139,8.139,0,0,1,6.076,3.006c1.247,1.967.192,5.309-2.143,5.341,3.2-1.6,7.564.8,8.475,4.317,1.9,7.34-7.564,11.913-13.736,11.449-3.086-.224-6.076-1.7-9.147-1.263-5.613.784-9.594,1.375-13.816-3.662-3.038-3.646-1.983-8.7.512-12.345a10.218,10.218,0,0,1,6.988-4.669c.9-.128,7.755.752,7.26,2.4a6.284,6.284,0,0,1,3.71-4.078Z" transform="translate(160.074 965.1)" fill="#fff"/>
    <path id="Tracé_150" data-name="Tracé 150" d="M264.4,117.191a8.23,8.23,0,0,1-.9,0,24.323,24.323,0,0,1-3.758-.688,14.12,14.12,0,0,0-5.213-.592c-5.677.8-10.09,1.423-14.536-3.934-3.5-4.206-1.935-9.786.464-13.3a10.954,10.954,0,0,1,7.532-5.021,17.59,17.59,0,0,1,7.2,1.6,7.116,7.116,0,0,1,3.582-3.2h0a12.52,12.52,0,0,1,6.22-.528c3.2.4,5.485,1.6,6.652,3.358a4.8,4.8,0,0,1,.176,4.525,7.069,7.069,0,0,1,2.127.592,7.467,7.467,0,0,1,4.126,4.8,8,8,0,0,1-1.727,7.34,16.566,16.566,0,0,1-11.945,5.053Zm-8.779-2.974a19.19,19.19,0,0,1,4.541.7,21.907,21.907,0,0,0,3.5.64,14.7,14.7,0,0,0,11.5-4.541,6.3,6.3,0,0,0,1.407-5.917,5.9,5.9,0,0,0-3.2-3.71,5.165,5.165,0,0,0-2.846-.464,2.958,2.958,0,0,1-1.6.464.768.768,0,0,1-.784-.608.832.832,0,0,1,.432-.911,5.294,5.294,0,0,1,1.311-.448,2.286,2.286,0,0,0,.528-.672,3.2,3.2,0,0,0,0-3.07c-.911-1.423-2.75-2.3-5.5-2.638a10.922,10.922,0,0,0-5.437.432h0a5.613,5.613,0,0,0-3.2,3.582.8.8,0,0,1-1.519-.464c-.48-.672-5.469-1.487-6.4-1.391a9.435,9.435,0,0,0-6.4,4.333c-2.079,3.054-3.486,7.867-.56,11.385,3.886,4.669,7.516,4.158,13,3.39a9.886,9.886,0,0,1,1.215-.1Zm3.5-21.475Z" transform="translate(159.777 964.824)" fill="#d1d3d4"/>
    <path id="Tracé_151" data-name="Tracé 151" d="M235.042,107.476a7.052,7.052,0,0,0-4.8-.288,4.03,4.03,0,0,0-2.814,3.582,2.862,2.862,0,0,0,3.2,2.83c-3.742,2.447,4.285,8.827,7.835,2.015a5.661,5.661,0,0,0-3.422-8.139Z" transform="translate(153.474 974.138)" fill="#fff"/>
    <path id="Tracé_152" data-name="Tracé 152" d="M234.412,119.734a4.974,4.974,0,0,1-.688,0,5.357,5.357,0,0,1-4.493-3.566,2.686,2.686,0,0,1,.128-1.6,3.421,3.421,0,0,1-.959-.56,3.79,3.79,0,0,1-1.439-2.894,4.8,4.8,0,0,1,3.358-4.333,7.9,7.9,0,0,1,5.293.288h0A7.18,7.18,0,0,1,239.817,111a6.268,6.268,0,0,1-.416,5.245,5.741,5.741,0,0,1-4.989,3.486Zm-3.486-6.668a.784.784,0,0,1,.736.48.8.8,0,0,1-.3.975,1.1,1.1,0,0,0-.576,1.231,3.806,3.806,0,0,0,3.2,2.351,4.062,4.062,0,0,0,4.11-2.591,4.653,4.653,0,0,0,.336-3.934,5.532,5.532,0,0,0-3.326-3.1h0a6.524,6.524,0,0,0-4.222-.272,3.2,3.2,0,0,0-2.271,2.83,2.159,2.159,0,0,0,.848,1.6,1.6,1.6,0,0,0,1.343.4Z" transform="translate(153.192 973.874)" fill="#d1d3d4"/>
    <path id="Tracé_153" data-name="Tracé 153" d="M305.287,204.97a19.317,19.317,0,0,0-2.223-10.474c-1.407-2.335-3.55-4.174-4.7-6.636-1.983-4.254-.592-9.259-1.055-13.928a17.59,17.59,0,0,0-4.893-10.394c-2.447-2.463-5.6-4.158-8-6.732-3.822-4.222-4.925-10.17-7.1-15.431a38.522,38.522,0,0,0-15.287-18.005c4.174,8.4-5.325,19.061-1.023,27.392,1.359,2.638,3.966,4.557,4.973,7.356,2.415,6.748-5.645,14.072-3.054,20.788,1.279,3.342,4.8,5.277,6.524,8.459,2.255,4.27.48,9.451.672,14.28.256,6.652,4.3,12.617,9.115,17.222,2.99,2.878,6.4,5.357,9.594,8,3.87,3.2,5.5,6.4,8.923,1.391a42.871,42.871,0,0,0,7.532-23.282Z" transform="translate(172.903 984.006)" fill="#d1d3d4"/>
    <path id="Tracé_154" data-name="Tracé 154" d="M291.484,205.158c-1.247-5.149-2.143-10.746,0-15.607,2.367-5.5,8.283-9.387,8.987-15.335.448-3.886-1.6-7.835-.752-11.689s3.918-6.476,6.508-9.307a38.921,38.921,0,0,0,10.058-23.81c3.742,4.941,7.532,9.994,9.594,15.847s2.079,12.793-1.391,17.862a15.993,15.993,0,0,0-2.431,3.966c-1.167,3.79,2.079,7.34,3.758,10.938a12.569,12.569,0,0,1-1.183,12.9c-3.406,4.254-9.978,5.9-11.641,11.081a25.583,25.583,0,0,0-.592,5.869,17.222,17.222,0,0,1-12.393,14.775c-4.03.975-3.95-.624-4.669-4C294.283,214.1,292.54,209.7,291.484,205.158Z" transform="translate(191.072 987.624)" fill="#d1d3d4"/>
    <path id="Tracé_155" data-name="Tracé 155" d="M289.14,173.271c-2.862-9.9-4-20.244-7.02-30.094a166.568,166.568,0,0,0-9.37-22.387l12.281,5.181c3.934,1.6,8.2,3.614,10.058,7.468,3.2,6.7-2.574,15.271.816,21.891,1.2,2.319,3.358,3.982,4.8,6.108,3.614,5.085,3.07,12.057,1.071,17.957-.848,2.543-4.557,15.671-7.883,12.025-1.343-1.455-1.455-6.908-2.015-8.891C291.027,179.38,289.972,176.358,289.14,173.271Z" transform="translate(180.623 982.46)" fill="#d1d3d4"/>
    <path id="Tracé_156" data-name="Tracé 156" d="M290.966,263.567C288.536,247.4,280.86,190.378,280.78,189.8l2.111-.272c0,.576,7.74,57.566,10.186,73.733Z" transform="translate(185.434 1023.64)" fill="#d1d3d4"/>
    <path id="Tracé_157" data-name="Tracé 157" d="M289.8,281.975H287.67c.144-19.189,8.155-92.618,12.793-97.655l1.6,1.423C298.879,189.069,289.925,255.67,289.8,281.975Z" transform="translate(189.561 1020.519)" fill="#d1d3d4"/>
    <path id="Tracé_158" data-name="Tracé 158" d="M294.993,291.642l-2.127-.1c1.839-41.416-6.94-128.389-7.036-129.253l2.111-.224C288.037,162.949,296.832,250.067,294.993,291.642Z" transform="translate(188.459 1007.19)" fill="#d1d3d4"/>
    <path id="Tracé_159" data-name="Tracé 159" d="M274,211.45h45.7l-3.2,46.261a15.255,15.255,0,0,1-15.223,14.216h-8.843A15.271,15.271,0,0,1,277.2,257.711Z" transform="translate(181.372 1036.771)" fill="#fff"/>
    <path id="Tracé_160" data-name="Tracé 160" d="M301.562,273h-8.843a16.135,16.135,0,0,1-15.991-14.951l-3.2-46.261a.847.847,0,0,1,.224-.608.8.8,0,0,1,.528-.176h45.7a.8.8,0,0,1,.8.863l-3.2,46.261A16.119,16.119,0,0,1,301.562,273Zm-26.417-60.4,3.2,45.413a14.519,14.519,0,0,0,14.392,13.464h8.843a14.5,14.5,0,0,0,14.392-13.464l3.2-45.413Z" transform="translate(181.09 1036.502)" fill="#d1d3d4"/>
  </g>
</svg>
