<svg xmlns="http://www.w3.org/2000/svg" width="494.245" height="351.564" viewBox="0 0 494.245 351.564">
  <g id="code_development_" transform="translate(-41.12 -30.459)">
    <path id="Tracé_161" data-name="Tracé 161" d="M244.8,273.219a41.419,41.419,0,0,1-11.852-1.593c-10.164-3.059-19.26-11.582-24.932-23.355-5.082-10.546-7.121-22.16-9.081-33.455a.749.749,0,0,1,.637-.892.765.765,0,0,1,.892.621c1.944,11.152,3.951,22.654,8.937,33.009,5.5,11.39,14.242,19.595,23.992,22.542,7.089,2.119,14.816,1.593,22.112.733,15.628-1.848,25.155-6.691,29.153-14.784.143-.319.287-.605.382-.876-2.5.7-4.97,1.593-7.392,2.5-2.007.733-4.078,1.482-6.149,2.135a66.049,66.049,0,0,1-31.177,2.039c-5.018-.892-8.077-3.314-8.188-6.468s2.613-5.671,7.472-7.073a78.156,78.156,0,0,1,40.862-.749c3.823.956,5.926,2.549,6.372,4.859a6.267,6.267,0,0,1,.1.765c.605-.143,1.211-.271,1.832-.382,6.468-1.147,13.223-.494,19.754.127,9.272.892,18.034,1.736,25.935-2.151a.781.781,0,0,1,1.035.366.765.765,0,0,1-.35,1.036c-8.3,4.062-17.683,3.186-26.764,2.294-6.372-.621-13.079-1.259-19.34-.143-.765.127-1.593.3-2.278.478a10.309,10.309,0,0,1-.781,2.039c-4.238,8.6-14.178,13.716-30.348,15.644A91.345,91.345,0,0,1,244.8,273.219Zm16.616-26.509a76.784,76.784,0,0,0-21.379,3.043c-1.944.558-6.468,2.246-6.372,5.544s5.3,4.779,6.9,4.986a64.616,64.616,0,0,0,30.444-1.88c2.039-.637,4.094-1.386,6.07-2.1,2.724-1,5.5-2.023,8.348-2.772a3.36,3.36,0,0,0,0-.812c-.366-1.689-2.1-2.883-5.3-3.7A76.469,76.469,0,0,0,261.416,246.71Z" transform="translate(93.588 108.802)" fill="#e6e7e8"/>
    <rect id="Rectangle_29" data-name="Rectangle 29" width="118.86" height="236.923" rx="4.76" transform="translate(414.729 138.216)" fill="#fff"/>
    <path id="Tracé_162" data-name="Tracé 162" d="M387.2,336.078H283.508a8.364,8.364,0,0,1-8.348-8.348V105.958a8.364,8.364,0,0,1,8.348-8.348H387.2a8.364,8.364,0,0,1,8.364,8.348V327.73a8.364,8.364,0,0,1-8.364,8.348ZM283.508,99.155a6.8,6.8,0,0,0-6.8,6.8V327.73a6.8,6.8,0,0,0,6.8,6.8H387.2a6.8,6.8,0,0,0,6.8-6.8V105.958a6.8,6.8,0,0,0-6.8-6.8Z" transform="translate(138.804 39.826)" fill="#231f20"/>
    <rect id="Rectangle_30" data-name="Rectangle 30" width="106.37" height="182.328" transform="translate(420.973 159.643)" fill="#68a9fd"/>
    <rect id="Rectangle_31" data-name="Rectangle 31" width="29.552" height="17.062" rx="2.92" transform="translate(459.383 350.844)" fill="#fff"/>
    <path id="Tracé_163" data-name="Tracé 163" d="M328.839,249.681H308.622a5.432,5.432,0,0,1-5.432-5.432v-7.726a5.432,5.432,0,0,1,5.432-5.432h20.216a5.432,5.432,0,0,1,5.448,5.432v7.726A5.448,5.448,0,0,1,328.839,249.681Zm-20.216-17.046a3.887,3.887,0,0,0-3.887,3.887v7.726a3.887,3.887,0,0,0,3.887,3.887h20.216a3.887,3.887,0,0,0,3.887-3.887v-7.726a3.887,3.887,0,0,0-3.887-3.887Z" transform="translate(155.428 118.99)" fill="#e6e7e8"/>
    <path id="Tracé_164" data-name="Tracé 164" d="M331.249,105.575H300.981a.765.765,0,0,1-.781-.765.781.781,0,0,1,.781-.781h30.268a.765.765,0,0,1,.765.781.749.749,0,0,1-.765.765Z" transform="translate(153.655 43.633)" fill="#e6e7e8"/>
    <path id="Tracé_165" data-name="Tracé 165" d="M326.7,105.575h-4.062a.765.765,0,0,1-.765-.765.781.781,0,0,1,.765-.781H326.7a.781.781,0,0,1,.781.781.765.765,0,0,1-.781.765Z" transform="translate(166.507 43.633)" fill="#e6e7e8"/>
    <path id="Tracé_166" data-name="Tracé 166" d="M369.633,202.5H290.218a5.958,5.958,0,0,1-5.958-5.958V157.324a5.958,5.958,0,0,1,5.958-5.974h79.351a5.974,5.974,0,0,1,5.974,5.974v39.222a5.974,5.974,0,0,1-5.91,5.958Zm-79.415-49.593a4.413,4.413,0,0,0-4.413,4.413v39.222a4.413,4.413,0,0,0,4.413,4.413h79.351a4.413,4.413,0,0,0,4.413-4.413V157.324a4.413,4.413,0,0,0-4.413-4.413Z" transform="translate(144.201 71.698)" fill="#fff"/>
    <path id="Tracé_167" data-name="Tracé 167" d="M285.065,192.788a.781.781,0,0,1-.478-1.386L323.9,160.289a.781.781,0,0,1,1.036.08l23.466,24.342a.781.781,0,0,1,0,1.1.765.765,0,0,1-1.083,0l-22.972-23.9L285.575,192.6A.749.749,0,0,1,285.065,192.788Z" transform="translate(144.224 76.905)" fill="#fff"/>
    <path id="Tracé_168" data-name="Tracé 168" d="M352.19,182.032a.765.765,0,0,1-.573-.271l-13.031-14.768-14.9,12.442a.769.769,0,1,1-.988-1.179l15.469-12.936a.765.765,0,0,1,1.067,0l13.525,15.341a.765.765,0,0,1,0,1.083.7.7,0,0,1-.574.287Z" transform="translate(166.837 79.855)" fill="#fff"/>
    <path id="Tracé_169" data-name="Tracé 169" d="M326.444,168.9a6.038,6.038,0,1,1,6.022-6.022A6.038,6.038,0,0,1,326.444,168.9Zm0-10.514a4.492,4.492,0,1,0,4.477,4.492,4.492,4.492,0,0,0-4.477-4.492Z" transform="translate(165.629 74.942)" fill="#fff"/>
    <rect id="Rectangle_32" data-name="Rectangle 32" width="15.182" height="17.588" rx="3.42" transform="translate(430.866 312.292)" fill="#fff"/>
    <rect id="Rectangle_33" data-name="Rectangle 33" width="15.182" height="17.588" rx="3.42" transform="translate(454.667 312.292)" fill="#fff"/>
    <rect id="Rectangle_34" data-name="Rectangle 34" width="15.182" height="17.588" rx="3.42" transform="translate(478.468 312.292)" fill="#fff"/>
    <rect id="Rectangle_35" data-name="Rectangle 35" width="15.182" height="17.588" rx="3.42" transform="translate(502.268 312.292)" fill="#fff"/>
    <path id="Tracé_170" data-name="Tracé 170" d="M373.257,121.665H285.781A.765.765,0,0,1,285,120.9a.781.781,0,0,1,.781-.781h87.476a.781.781,0,0,1,.781.781.765.765,0,0,1-.781.765Z" transform="translate(144.64 53.176)" fill="#fff"/>
    <path id="Tracé_171" data-name="Tracé 171" d="M373.262,129.423H285.787a.8.8,0,1,1,0-1.593h87.476a.8.8,0,0,1,0,1.593Z" transform="translate(144.634 57.748)" fill="#fff"/>
    <path id="Tracé_172" data-name="Tracé 172" d="M373.257,137.145H285.781a.781.781,0,0,1-.781-.781.765.765,0,0,1,.781-.765h87.476a.765.765,0,0,1,.781.765A.781.781,0,0,1,373.257,137.145Z" transform="translate(144.64 62.357)" fill="#fff"/>
    <path id="Tracé_173" data-name="Tracé 173" d="M373.262,144.9H285.787a.8.8,0,1,1,0-1.593h87.476a.8.8,0,0,1,0,1.593Z" transform="translate(144.634 66.929)" fill="#fff"/>
    <path id="Tracé_174" data-name="Tracé 174" d="M373.262,192.843H285.787a.8.8,0,1,1,0-1.593h87.476a.8.8,0,0,1,0,1.593Z" transform="translate(144.634 95.361)" fill="#fff"/>
    <path id="Tracé_175" data-name="Tracé 175" d="M373.257,200.575H285.781a.765.765,0,0,1-.781-.765.781.781,0,0,1,.781-.781h87.476a.781.781,0,0,1,.781.781.765.765,0,0,1-.781.765Z" transform="translate(144.64 99.976)" fill="#fff"/>
    <path id="Tracé_176" data-name="Tracé 176" d="M342.417,54.693s1.96-8.348.143-13.1a6.834,6.834,0,0,0-6.786-4.285s-13.191-2.931-17-6.372l1.721,6.086a17.524,17.524,0,0,1-6.6-1.8,6.006,6.006,0,0,0,1.7,5.863,7.041,7.041,0,0,1-6.086,0s3.616,8.873,12.028,7.965C327.028,48.241,336.73,56.525,342.417,54.693Z" transform="translate(159.182 0.285)" fill="#fff"/>
    <path id="Tracé_177" data-name="Tracé 177" d="M340.857,56.029c-3.011,0-6.532-1.593-9.973-3.186s-6.675-3.186-8.985-2.852c-8.905,1.035-12.745-8.268-12.84-8.364a.781.781,0,0,1,1.115-.956,5.751,5.751,0,0,0,4.3.414,6.978,6.978,0,0,1-1.067-5.735.717.717,0,0,1,.414-.494.844.844,0,0,1,.653,0A20.247,20.247,0,0,0,319.7,36.45l-1.418-5a.8.8,0,0,1,.335-.876.765.765,0,0,1,.924.1c3.441,3.186,15.278,5.878,16.552,6.181a7.5,7.5,0,0,1,7.487,4.779c1.9,4.907,0,13.191-.111,13.541a.733.733,0,0,1-.494.558A6.691,6.691,0,0,1,340.857,56.029Zm1.864-1.051Zm-20.28-6.627c2.613,0,5.767,1.482,9.1,3.027,3.807,1.784,7.742,3.616,10.53,2.979.366-1.752,1.593-8.332.08-12.187a6.07,6.07,0,0,0-6.07-3.807h-.239c-.478-.112-10.4-2.326-15.5-5.273l1.131,4a.8.8,0,0,1-.127.685.78.78,0,0,1-.621.3,17.173,17.173,0,0,1-5.99-1.466,4.779,4.779,0,0,0,1.593,4.158.812.812,0,0,1,.271.685.749.749,0,0,1-.43.605,8.411,8.411,0,0,1-4.779.637c1.466,2.39,4.779,6.372,10.339,5.719A5.243,5.243,0,0,1,322.441,48.351Z" transform="translate(158.878)" fill="#231f20"/>
    <path id="Tracé_178" data-name="Tracé 178" d="M352.893,112s11.5-25.155,10.1-41.643-12.2-17.524-15.931-17.731-23.593-2.883-30.842,5.99-5.369,51.616-5.369,51.616Z" transform="translate(159.842 12.83)" fill="#68a9fd"/>
    <path id="Tracé_179" data-name="Tracé 179" d="M323.145,83.281A149.509,149.509,0,0,0,299.01,97.172c-6.723,4.556-10.53,52.651-10.53,52.651s1.386,7.726,10.323,6.516l23.53-53.575S330.728,83.074,323.145,83.281Z" transform="translate(146.704 31.326)" fill="#231f20"/>
    <path id="Tracé_180" data-name="Tracé 180" d="M297.258,157.472a9.224,9.224,0,0,1-9.256-7.3.779.779,0,0,1,0-.191c.4-4.97,4.046-48.589,10.865-53.225a151.753,151.753,0,0,1,24.294-13.924.526.526,0,0,1,.271,0,3.425,3.425,0,0,1,3.075,1.466c2.979,4.381-2.517,17.524-3.186,19.117l-23.53,53.591a.765.765,0,0,1-.605.446A14.144,14.144,0,0,1,297.258,157.472Zm-7.663-7.456c.175.828,1.7,6.611,9.017,5.847L321.967,102.7c1.593-3.823,5.416-14.465,3.3-17.524a1.832,1.832,0,0,0-1.593-.8,156.249,156.249,0,0,0-23.9,13.732C294.486,101.6,290.615,136.635,289.6,150.017Z" transform="translate(146.417 31.053)" fill="#231f20"/>
    <path id="Tracé_181" data-name="Tracé 181" d="M356.393,86.451s-33.789.972-41.739-.191c0,0-.446.1-6.277,10.833s2.549,59.82,2.549,59.82,7.679,8.125,13.748,6.962l7.185-55.965s12.251.366,19.117-4.508C355.693,99.976,355.485,92.664,356.393,86.451Z" transform="translate(157.281 33.094)" fill="#231f20"/>
    <path id="Tracé_182" data-name="Tracé 182" d="M323.723,165.022c-6.086,0-12.745-7.01-13.079-7.328a.717.717,0,0,1-.191-.4c-.35-2.007-8.364-49.385-2.469-60.314s6.372-11.152,6.8-11.152h.271c7.79,1.163,41.277.207,41.611.191a.749.749,0,0,1,.781.892c-.159,1.147-.3,2.342-.43,3.537-.589,5.385-1.195,10.944-5.369,13.939-6.054,4.333-16.058,4.652-18.814,4.652l-7.105,55.121a.78.78,0,0,1-.621.669A7.87,7.87,0,0,1,323.723,165.022Zm-11.789-8.22c1.067,1.083,7.3,7.105,12.33,6.643l7.121-55.375a.749.749,0,0,1,.8-.669c.127,0,12.06.287,18.575-4.365,3.6-2.6,4.174-7.806,4.779-12.856.1-.892.191-1.8.3-2.676-5.448.143-32.61.812-40.512-.175-.462.669-1.88,2.915-5.942,10.387-5.48,10.02,1.928,55.375,2.549,59.087Z" transform="translate(156.991 32.839)" fill="#231f20"/>
    <path id="Tracé_183" data-name="Tracé 183" d="M330.128,56.19s-5.353,10.307-8.507,15.6A110.18,110.18,0,0,1,311.6,84.674s-24.294,8.634-24.438,9.1,2.294,8.634,2.294,8.634,25.489-1.832,29.695-3.823S331.9,86.793,331.9,86.793Z" transform="translate(145.919 15.26)" fill="#68a9fd"/>
    <path id="Tracé_184" data-name="Tracé 184" d="M323.049,61.67l1.45,8.794a6.532,6.532,0,0,0,8.38,2.071c5.56-2.453,5.56-6.659,5.56-6.659l-2.963-16.249s-5.13-1.991-7.79-12c0,0-12.745.972-11.868,5.735,0,0-.159,8.969,1.195,13.334A7.87,7.87,0,0,0,323.049,61.67Z" transform="translate(162.891 4.253)" fill="#fff"/>
    <path id="Tracé_185" data-name="Tracé 185" d="M330.053,74.329a7.519,7.519,0,0,1-5.91-3.186,1.069,1.069,0,0,1-.112-.287l-1.37-8.3a8.157,8.157,0,0,1-6.117-5.353c-1.386-4.445-1.243-13.223-1.243-13.589a3.186,3.186,0,0,1,.7-2.469c2.5-3.186,10.928-3.951,11.884-4.015a.781.781,0,0,1,.813.574c2.5,9.415,7.28,11.454,7.328,11.47a.765.765,0,0,1,.478.574L339.468,66c0,.335,0,4.923-5.974,7.519a8.555,8.555,0,0,1-3.441.812Zm-4.524-3.871a5.767,5.767,0,0,0,7.344,1.673c4.939-2.167,5.066-5.815,5.066-5.974l-2.883-15.708c-1.306-.685-5.321-3.441-7.679-11.693-2.772.287-8.523,1.274-10.164,3.377a1.673,1.673,0,0,0-.366,1.386c0,.239-.127,9.049,1.179,13.254a6.85,6.85,0,0,0,5.369,4.413l.319.1a.812.812,0,0,1,.4.558Z" transform="translate(162.593 3.955)" fill="#231f20"/>
    <path id="Tracé_186" data-name="Tracé 186" d="M326,46.866a3.871,3.871,0,0,1,.924-2.23,6.786,6.786,0,0,1,1.832-1.386,2.932,2.932,0,0,1,1.179-.43,2.374,2.374,0,0,1,.876.159,2.979,2.979,0,0,1,1.593,1.195,3.442,3.442,0,0,1,.366,1.593,6.467,6.467,0,0,1-.128,1.832,4.62,4.62,0,0,1-2.087,2.9,4.779,4.779,0,0,1-3.521.558" transform="translate(168.956 7.331)" fill="#fff"/>
    <path id="Tracé_187" data-name="Tracé 187" d="M328.41,52.309a5.7,5.7,0,0,1-1.274-.159.781.781,0,0,1-.574-.94.765.765,0,0,1,.94-.558,4.047,4.047,0,0,0,2.947-.462,3.951,3.951,0,0,0,1.736-2.422,6.229,6.229,0,0,0,.112-1.593,2.723,2.723,0,0,0-.271-1.274,2.214,2.214,0,0,0-1.227-.876,2.533,2.533,0,0,0-.573-.112,2.167,2.167,0,0,0-.844.35,5.815,5.815,0,0,0-1.593,1.195,2.979,2.979,0,0,0-.733,1.784.8.8,0,0,1-.828.733.765.765,0,0,1-.717-.828,4.651,4.651,0,0,1,1.1-2.692,7.263,7.263,0,0,1,2.039-1.593,3.744,3.744,0,0,1,1.593-.542,3.41,3.41,0,0,1,1.179.207,3.616,3.616,0,0,1,2.055,1.593,4.254,4.254,0,0,1,.478,1.991,7.962,7.962,0,0,1-.143,2.039,5.448,5.448,0,0,1-5.289,4.19Z" transform="translate(168.664 7.034)" fill="#231f20"/>
    <path id="Tracé_188" data-name="Tracé 188" d="M321.594,43.88S319.2,48.85,320,49.535s2.788-.127,2.788-.127" transform="translate(165.301 7.96)" fill="#fff"/>
    <path id="Tracé_189" data-name="Tracé 189" d="M321.293,50.857a2.262,2.262,0,0,1-1.466-.446c-.335-.271-1.306-1.067,1.354-6.579a.781.781,0,0,1,1.02-.366.765.765,0,0,1,.367,1.035,16.377,16.377,0,0,0-1.593,4.779,3.457,3.457,0,0,0,1.88-.3.8.8,0,0,1,1.02.414.781.781,0,0,1-.43,1.02A6.134,6.134,0,0,1,321.293,50.857ZM320.927,49.376Z" transform="translate(165.028 7.673)" fill="#231f20"/>
    <ellipse id="Ellipse_10" data-name="Ellipse 10" cx="0.765" cy="1.067" rx="0.765" ry="1.067" transform="translate(489.85 49.585) rotate(-5.8)" fill="#231f20"/>
    <ellipse id="Ellipse_11" data-name="Ellipse 11" cx="0.765" cy="1.067" rx="0.765" ry="1.067" transform="translate(483.413 50.715) rotate(-5.4)" fill="#231f20"/>
    <path id="Tracé_190" data-name="Tracé 190" d="M323.137,52.965a12,12,0,0,1-4.254-.876.765.765,0,0,1-.4-1.02.8.8,0,0,1,1.02-.4s3.616,1.593,6.054.207a4.923,4.923,0,0,0,2.23-3.776.807.807,0,0,1,1.593.255,5.9,5.9,0,0,1-6.245,5.608Z" transform="translate(164.459 9.468)" fill="#231f20"/>
    <path id="Tracé_191" data-name="Tracé 191" d="M320.34,53.473s5.671.35,8.6-2.023c0,0-2.358,7.965-7.6,7.965Z" transform="translate(165.599 12.449)" fill="#231f20"/>
    <path id="Tracé_192" data-name="Tracé 192" d="M321.657,60.571a.749.749,0,0,1-.749-.653l-1-6.022a.749.749,0,0,1,.191-.653.765.765,0,0,1,.621-.255s5.416.3,8.061-1.848a.781.781,0,0,1,1.227.828c-.1.335-2.565,8.507-8.332,8.6Zm0-6.006.733,4.4c2.708-.462,4.508-3.425,5.448-5.464a17.731,17.731,0,0,1-6.325,1.051Z" transform="translate(165.333 12.17)" fill="#231f20"/>
    <path id="Tracé_193" data-name="Tracé 193" d="M350.3,55.015c4.54.8,22.909,43.268,16.616,48.111-9.813,7.567-43.969,0-43.969,0l2.788-13.175s21.953.621,22.3-3.887-12.745-25.378-11.056-28.5S350.3,55.015,350.3,55.015Z" transform="translate(167.147 14.539)" fill="#68a9fd"/>
    <path id="Tracé_194" data-name="Tracé 194" d="M339.195,80.156a49,49,0,0,1-10.913-.526,33.3,33.3,0,0,0-8.157-.94A30.571,30.571,0,0,0,309.611,81.1a.812.812,0,0,0-.367.239c-.319.446.446.892,1,.908a14.928,14.928,0,0,0,4.285-.542,40.831,40.831,0,0,0-9.7,5.162c-.35.239-.717.621-.558,1s.86.319,1.306.112l7.838-3.584a19.818,19.818,0,0,0-5.576,3.393c-.223.207-.494.478-.414.781s.892.43,1.386.191a46.785,46.785,0,0,0,6.818-4.174l-4.779,3.728a.793.793,0,0,0,.765.733,2.23,2.23,0,0,0,1.115-.382l5.4-3.186-3.361,2.358c-.542.366-1.147.972-.876,1.593s1.338.478,2.039.175a40.432,40.432,0,0,1,8.634-2.645,14.431,14.431,0,0,1,3.186-.653,29.566,29.566,0,0,1,4.923,1.083c2.453.542,4.891,1.1,7.328,1.593" transform="translate(156.048 28.604)" fill="#fff"/>
    <path id="Tracé_195" data-name="Tracé 195" d="M314.928,90.892a1.927,1.927,0,0,1-.685-.112,1.418,1.418,0,0,1-.813-.765,1.258,1.258,0,0,1-.112-.494h0a2.708,2.708,0,0,1-1.5.494,1.569,1.569,0,0,1-1.354-.908c-.335.191-.685.366-1.036.542a2.1,2.1,0,0,1-1.752.127,1.147,1.147,0,0,1-.637-.812,1.209,1.209,0,0,1,0-.478l-.86.4a2.135,2.135,0,0,1-1.593.159,1.147,1.147,0,0,1-.669-.637c-.143-.3-.319-1.083.781-1.864a41.866,41.866,0,0,1,5.544-3.377,1.88,1.88,0,0,1-1.386-.876,1.083,1.083,0,0,1,.1-1.115,1.465,1.465,0,0,1,.653-.478,31.128,31.128,0,0,1,10.769-2.453,28.852,28.852,0,0,1,7.312.765l1,.175a48.717,48.717,0,0,0,10.769.526h0a.717.717,0,0,1,.717.685.733.733,0,0,1-.685.733,51.68,51.68,0,0,1-11.072-.542l-1.02-.191a28.563,28.563,0,0,0-6.978-.749,30.476,30.476,0,0,0-9.766,2.135,13.335,13.335,0,0,0,3.951-.51.705.705,0,1,1,.446,1.338,40.737,40.737,0,0,0-9.351,4.907l5.847-2.676c.605-.3,1.211-.589,1.832-.828a.7.7,0,0,1,.558,1.29l-1.768.812a19.323,19.323,0,0,0-3.345,2.214,44.259,44.259,0,0,0,6.643-4.094.711.711,0,0,1,.86,1.131L312.474,88.3h.1l5.4-3.186a.717.717,0,0,1,.765,1.195l-3.377,2.358c-.542.382-.653.669-.637.7a1.593,1.593,0,0,0,1.115-.191,41.42,41.42,0,0,1,8.81-2.708l1.02-.271a7.616,7.616,0,0,1,2.342-.366,15.933,15.933,0,0,1,3.584.7c.51.143,1,.287,1.482.382L340.4,88.6a.7.7,0,0,1-.319,1.37c-2.437-.558-4.875-1.131-7.328-1.593-.494-.112-1-.255-1.593-.4a15.069,15.069,0,0,0-3.186-.653,6.117,6.117,0,0,0-1.943.35c-.366.1-.733.207-1.115.271a40.53,40.53,0,0,0-8.507,2.66A3.871,3.871,0,0,1,314.928,90.892Z" transform="translate(155.798 28.335)" fill="#231f20"/>
    <path id="Tracé_196" data-name="Tracé 196" d="M317.609,58.53c-1.211,1.227-4.254,20.535-5.369,29.647" transform="translate(160.795 16.648)" fill="#fff"/>
    <path id="Tracé_197" data-name="Tracé 197" d="M312.5,89.134h-.1a.7.7,0,0,1-.605-.781c.685-5.671,3.967-28.436,5.576-30.077a.717.717,0,0,1,1.02.988c-1.035,1.418-3.967,19.213-5.193,29.265A.717.717,0,0,1,312.5,89.134Z" transform="translate(160.532 16.408)" fill="#231f20"/>
    <path id="Tracé_198" data-name="Tracé 198" d="M286.85,88.55l.542,3.616,49.991,7.3-.844-3.728Z" transform="translate(145.737 34.452)" fill="#fff"/>
    <path id="Tracé_199" data-name="Tracé 199" d="M337.672,100.536h-.112L287.57,93.223a.781.781,0,0,1-.653-.653l-.542-3.616a.749.749,0,0,1,.207-.669.845.845,0,0,1,.669-.223l49.688,7.2a.765.765,0,0,1,.637.589l.781,3.744a.717.717,0,0,1-.175.685A.765.765,0,0,1,337.672,100.536Zm-49.385-8.762L336.6,98.831l-.478-2.119-48.143-6.962Z" transform="translate(145.448 34.16)" fill="#231f20"/>
    <path id="Tracé_200" data-name="Tracé 200" d="M286.85,92.15s11.375-9.766,11.757-9.67,51.5,6.213,51.5,6.213L336.474,99.335Z" transform="translate(145.737 30.852)" fill="#fff"/>
    <path id="Tracé_201" data-name="Tracé 201" d="M336.765,100.426h0l-49.736-7.249a.8.8,0,0,1-.637-.558.749.749,0,0,1,.239-.8c11.693-10.036,11.948-9.957,12.442-9.845.765.127,33.98,4.11,51.425,6.2a.781.781,0,0,1,.653.574.733.733,0,0,1-.271.813L337.307,100.2a.765.765,0,0,1-.542.223Zm-47.792-8.491,47.665,6.9,11.852-9.288C333.1,87.7,302.514,84.033,299.1,83.587,297.958,84.3,292.781,88.653,288.973,91.935Z" transform="translate(145.446 30.542)" fill="#231f20"/>
    <path id="Tracé_202" data-name="Tracé 202" d="M318.884,100.75l13.047-10.913-.319-3.457L318.04,97.022Z" transform="translate(164.235 33.165)" fill="#fff"/>
    <path id="Tracé_203" data-name="Tracé 203" d="M319.172,101.817a.637.637,0,0,1-.239,0,.733.733,0,0,1-.51-.558l-.844-3.728a.749.749,0,0,1,.271-.781l13.573-10.69a.781.781,0,0,1,1.259.542l.3,3.457a.765.765,0,0,1-.271.669l-13.047,10.929A.813.813,0,0,1,319.172,101.817Zm0-4.206.462,2.023,11.757-9.845-.143-1.593Z" transform="translate(163.948 32.878)" fill="#231f20"/>
    <path id="Tracé_204" data-name="Tracé 204" d="M290.426,100.536l-9.606-32.2,52.7,8.985,6.6,30.4Z" transform="translate(142.161 22.466)" fill="#fff"/>
    <path id="Tracé_205" data-name="Tracé 205" d="M340.323,108.808h0l-49.736-7.249a.765.765,0,0,1-.637-.558l-9.559-32.18a.781.781,0,0,1,.876-.988l52.683,9.033a.765.765,0,0,1,.621.589l6.563,30.476a.733.733,0,0,1-.191.685.765.765,0,0,1-.621.191Zm-49.1-8.666,48.111,6.962-6.2-28.8L282.16,69.618Z" transform="translate(141.888 22.16)" fill="#231f20"/>
    <path id="Tracé_206" data-name="Tracé 206" d="M337.763,105.9h-.127l-10.658-1.832a.8.8,0,0,1-.653-.749l-.335-12.745a.749.749,0,0,1,.7-.781l18.846-1.944-8.38-28.819a.779.779,0,0,1,1.5-.43l8.619,29.647a.749.749,0,0,1-.1.637.812.812,0,0,1-.558.351L327.5,91.192l.319,11.422,10.036,1.721a.8.8,0,0,1-.143,1.593Z" transform="translate(168.95 16.357)" fill="#231f20"/>
    <path id="Tracé_207" data-name="Tracé 207" d="M293.512,121.316a34.464,34.464,0,0,0-2.756-2.294c-2.071-1.593-6.516-3.839-7.79-.175-.8,2.262.43,5.273,1.274,7.36a28.9,28.9,0,0,0,7.44,10.435c2.82,2.549,11.8,6.229,11.151-.876a10.466,10.466,0,0,0-1.211-3.664A37.421,37.421,0,0,0,293.512,121.316Z" transform="translate(143.281 51.247)" fill="#fff"/>
    <path id="Tracé_208" data-name="Tracé 208" d="M299.779,140.867a14.624,14.624,0,0,1-8.3-3.441,29.647,29.647,0,0,1-7.631-10.69c-.86-2.135-2.167-5.337-1.29-7.87a3.409,3.409,0,0,1,2.214-2.278c2.6-.781,6.022,1.593,6.675,2.135a35.567,35.567,0,0,1,2.8,2.326h0a38,38,0,0,1,8.284,10.992,11.153,11.153,0,0,1,1.274,3.919c.255,2.772-.892,3.967-1.912,4.461A4.588,4.588,0,0,1,299.779,140.867Zm-13.892-23.02a2.4,2.4,0,0,0-.7.1,1.959,1.959,0,0,0-1.29,1.4c-.7,2.007.478,4.923,1.259,6.85a28.2,28.2,0,0,0,7.264,10.18c2.007,1.832,6.723,3.855,8.858,2.788.908-.462,1.274-1.466,1.131-3.075a10.038,10.038,0,0,0-1.147-3.409A35.923,35.923,0,0,0,293.3,122.1a27.182,27.182,0,0,0-2.692-2.246A9.112,9.112,0,0,0,285.888,117.847Z" transform="translate(143.019 50.989)" fill="#231f20"/>
    <path id="Tracé_209" data-name="Tracé 209" d="M310.432,122.372a3.3,3.3,0,0,0-2.1-.589,2.66,2.66,0,0,0-1.243.685,6.149,6.149,0,0,0-1.689,5.05,14.8,14.8,0,0,0,1.673,5.209c2.437,5.066,5.735,9.973,10.626,12.745a9.208,9.208,0,0,0,2.836,1.1c8.7,1.593,5.1-7.041,2.963-10.944a33.741,33.741,0,0,0-13.063-13.254Z" transform="translate(156.709 54.158)" fill="#fff"/>
    <path id="Tracé_210" data-name="Tracé 210" d="M322.664,147.69a11.626,11.626,0,0,1-1.991-.191,9.813,9.813,0,0,1-3.043-1.179c-4.3-2.422-7.87-6.675-10.928-13.015a16.154,16.154,0,0,1-1.752-5.464,6.787,6.787,0,0,1,1.928-5.624,3.186,3.186,0,0,1,1.593-.86,3.919,3.919,0,0,1,2.565.653h0a34.729,34.729,0,0,1,13.35,13.493c1.593,2.836,3.871,7.965,1.959,10.658A4.222,4.222,0,0,1,322.664,147.69ZM308.9,122.727h-.191a1.88,1.88,0,0,0-.876.51,5.369,5.369,0,0,0-1.466,4.461,14.051,14.051,0,0,0,1.593,4.97c2.915,6.086,6.372,10.132,10.323,12.394a8.189,8.189,0,0,0,2.613,1.02c2.183.4,3.616.127,4.254-.765,1.243-1.736-.239-5.863-2.039-9.144a33.183,33.183,0,0,0-12.745-12.936,3.281,3.281,0,0,0-1.466-.51Z" transform="translate(156.441 53.899)" fill="#231f20"/>
    <path id="Tracé_211" data-name="Tracé 211" d="M306.731,110.6a.765.765,0,0,1-.765-.7c0-.35-.876-8.905.589-13.78a.771.771,0,1,1,1.482.43c-1.37,4.588-.558,13.127-.542,13.207a.781.781,0,0,1-.7.844Z" transform="translate(156.921 38.61)" fill="#fff"/>
    <rect id="Rectangle_36" data-name="Rectangle 36" width="340.536" height="241.208" rx="7.55" transform="translate(41.837 89.165)" fill="#fff"/>
    <path id="Tracé_212" data-name="Tracé 212" d="M370.345,309.565H53.865A12.824,12.824,0,0,1,41.12,296.821V79.6A12.745,12.745,0,0,1,53.865,66.86H370.345A12.745,12.745,0,0,1,383.09,79.6V296.773a12.745,12.745,0,0,1-12.745,12.792ZM53.865,68.357A11.263,11.263,0,0,0,42.6,79.6V296.773A11.263,11.263,0,0,0,53.865,308.02H370.345a11.263,11.263,0,0,0,11.247-11.247V79.6a11.263,11.263,0,0,0-11.247-11.247Z" transform="translate(0 21.588)" fill="#231f20"/>
    <rect id="Rectangle_37" data-name="Rectangle 37" width="315.35" height="197.335" transform="translate(54.422 120.358)" fill="#231f20"/>
    <path id="Tracé_213" data-name="Tracé 213" d="M365.116,285.318H49.767a.8.8,0,0,1-.8-.8V87.187a.8.8,0,0,1,.8-.8H365.2a.8.8,0,0,1,.8.8V284.521a.8.8,0,0,1-.876.8ZM50.611,283.725H364.447V87.983H50.611Z" transform="translate(4.656 33.171)" fill="#231f20"/>
    <rect id="Rectangle_38" data-name="Rectangle 38" width="315.35" height="18.512" transform="translate(54.422 101.846)" fill="#68a9fd"/>
    <path id="Tracé_214" data-name="Tracé 214" d="M365.116,94.875H49.767a.8.8,0,0,1-.8-.8V75.567a.8.8,0,0,1,.8-.8H365.2a.8.8,0,0,1,.8.8V94.078a.8.8,0,0,1-.876.8ZM50.611,93.282H364.447V76.363H50.611Z" transform="translate(4.656 26.28)" fill="#68a9fd"/>
    <path id="Tracé_215" data-name="Tracé 215" d="M99.533,99.8H72.451a.765.765,0,0,1-.781-.765.781.781,0,0,1,.781-.781H99.533a.765.765,0,0,1,.765.781.749.749,0,0,1-.765.765Z" transform="translate(18.119 40.205)" fill="#fff"/>
    <path id="Tracé_216" data-name="Tracé 216" d="M147.959,99.8H93.795a.749.749,0,0,1-.765-.765.765.765,0,0,1,.765-.781h54.165a.781.781,0,0,1,.781.781.765.765,0,0,1-.781.765Z" transform="translate(30.787 40.205)" fill="#68a9fd"/>
    <path id="Tracé_217" data-name="Tracé 217" d="M159.721,106.933H105.557a.8.8,0,1,1,0-1.593h54.165a.8.8,0,1,1,0,1.593Z" transform="translate(37.743 44.41)" fill="#68a9fd"/>
    <path id="Tracé_218" data-name="Tracé 218" d="M103.529,106.933H76.447a.8.8,0,0,1,0-1.593h27.082a.8.8,0,0,1,0,1.593Z" transform="translate(20.479 44.41)" fill="#fff"/>
    <path id="Tracé_219" data-name="Tracé 219" d="M107.523,114.025H80.441a.781.781,0,0,1-.781-.781.765.765,0,0,1,.781-.765h27.082a.749.749,0,0,1,.765.765.765.765,0,0,1-.765.781Z" transform="translate(22.857 48.645)" fill="#fff"/>
    <path id="Tracé_220" data-name="Tracé 220" d="M170.826,114.025H103.1a.765.765,0,0,1-.765-.781.749.749,0,0,1,.765-.765h67.722a.765.765,0,0,1,.781.765A.781.781,0,0,1,170.826,114.025Z" transform="translate(36.308 48.645)" fill="#68a9fd"/>
    <path id="Tracé_221" data-name="Tracé 221" d="M111.507,121.135H84.425a.781.781,0,0,1-.765-.781.765.765,0,0,1,.765-.765h27.082a.765.765,0,0,1,.781.765.781.781,0,0,1-.781.781Z" transform="translate(25.23 52.861)" fill="#fff"/>
    <path id="Tracé_222" data-name="Tracé 222" d="M184.385,121.135H103.871a.781.781,0,0,1-.781-.781.765.765,0,0,1,.781-.765h80.514a.765.765,0,0,1,.781.765.781.781,0,0,1-.781.781Z" transform="translate(36.753 52.861)" fill="#68a9fd"/>
    <path id="Tracé_223" data-name="Tracé 223" d="M107.009,128.263H79.927a.8.8,0,0,1,0-1.593h27.082a.8.8,0,0,1,0,1.593Z" transform="translate(22.543 57.06)" fill="#fff"/>
    <path id="Tracé_224" data-name="Tracé 224" d="M144.063,128.263H100.4a.8.8,0,0,1,0-1.593h43.666a.8.8,0,0,1,0,1.593Z" transform="translate(34.683 57.06)" fill="#68a9fd"/>
    <path id="Tracé_225" data-name="Tracé 225" d="M181.931,128.263H138.3a.8.8,0,0,1,0-1.593h43.666a.8.8,0,0,1,0,1.593Z" transform="translate(57.161 57.06)" fill="#68a9fd"/>
    <path id="Tracé_226" data-name="Tracé 226" d="M107.009,135.373H79.927a.8.8,0,0,1,0-1.593h27.082a.8.8,0,0,1,0,1.593Z" transform="translate(22.543 61.277)" fill="#fff"/>
    <path id="Tracé_227" data-name="Tracé 227" d="M142,135.373H103.877a.8.8,0,0,1,0-1.593H142a.8.8,0,1,1,0,1.593Z" transform="translate(36.747 61.277)" fill="#68a9fd"/>
    <path id="Tracé_228" data-name="Tracé 228" d="M147.427,135.373h-15.58a.8.8,0,0,1,0-1.593h15.58a.8.8,0,0,1,0,1.593Z" transform="translate(53.336 61.277)" fill="#68a9fd"/>
    <path id="Tracé_229" data-name="Tracé 229" d="M107,142.465H79.921a.765.765,0,0,1-.781-.765.781.781,0,0,1,.781-.781H107a.765.765,0,0,1,.765.781.749.749,0,0,1-.765.765Z" transform="translate(22.549 65.512)" fill="#fff"/>
    <path id="Tracé_230" data-name="Tracé 230" d="M157.142,142.465H101.385a.765.765,0,0,1-.765-.765.781.781,0,0,1,.765-.781h55.758a.781.781,0,0,1,.781.781.765.765,0,0,1-.781.765Z" transform="translate(35.288 65.512)" fill="#68a9fd"/>
    <path id="Tracé_231" data-name="Tracé 231" d="M167.613,142.465H140.531a.765.765,0,0,1-.781-.765.781.781,0,0,1,.781-.781h27.082a.781.781,0,0,1,.765.781.765.765,0,0,1-.765.765Z" transform="translate(58.495 65.512)" fill="#68a9fd"/>
    <path id="Tracé_232" data-name="Tracé 232" d="M90.274,149.593H75.937a.8.8,0,0,1,0-1.593H90.274a.8.8,0,1,1,0,1.593Z" transform="translate(20.177 69.711)" fill="#fff"/>
    <path id="Tracé_233" data-name="Tracé 233" d="M155.238,149.593H92.407a.8.8,0,0,1,0-1.593h62.831a.8.8,0,0,1,0,1.593Z" transform="translate(29.945 69.711)" fill="#68a9fd"/>
    <path id="Tracé_234" data-name="Tracé 234" d="M103.009,156.713H75.927a.8.8,0,0,1,0-1.593h27.082a.8.8,0,0,1,0,1.593Z" transform="translate(20.171 73.933)" fill="#fff"/>
    <path id="Tracé_235" data-name="Tracé 235" d="M132.539,163.805H78.375a.765.765,0,0,1-.765-.781.749.749,0,0,1,.765-.765h54.165a.765.765,0,0,1,.781.765.781.781,0,0,1-.781.781Z" transform="translate(21.641 78.168)" fill="#fff"/>
    <path id="Tracé_236" data-name="Tracé 236" d="M155.617,163.805H118a.765.765,0,0,1-.765-.781.749.749,0,0,1,.765-.765h37.613a.765.765,0,0,1,.781.765.781.781,0,0,1-.781.781Z" transform="translate(45.145 78.168)" fill="#68a9fd"/>
    <path id="Tracé_237" data-name="Tracé 237" d="M191.56,163.805H144.995a.765.765,0,0,1-.765-.781.749.749,0,0,1,.765-.765H191.56a.765.765,0,0,1,.765.765.781.781,0,0,1-.765.781Z" transform="translate(61.152 78.168)" fill="#68a9fd"/>
    <path id="Tracé_238" data-name="Tracé 238" d="M158.758,170.915H79.9a.781.781,0,0,1-.781-.781.765.765,0,0,1,.781-.765h78.857a.765.765,0,0,1,.781.765.781.781,0,0,1-.781.781Z" transform="translate(22.537 82.385)" fill="#fff"/>
    <path id="Tracé_239" data-name="Tracé 239" d="M168.258,170.915H132.781a.781.781,0,0,1-.781-.781.765.765,0,0,1,.781-.765h35.478a.749.749,0,0,1,.765.765.765.765,0,0,1-.765.781Z" transform="translate(53.899 82.385)" fill="#68a9fd"/>
    <path id="Tracé_240" data-name="Tracé 240" d="M264.308,170.915H158.815a.781.781,0,0,1-.765-.781.765.765,0,0,1,.765-.765H264.308a.765.765,0,0,1,.781.765A.781.781,0,0,1,264.308,170.915Z" transform="translate(69.349 82.385)" fill="#68a9fd"/>
    <path id="Tracé_241" data-name="Tracé 241" d="M117,178.043H79.707a.8.8,0,0,1,0-1.593H117a.8.8,0,1,1,0,1.593Z" transform="translate(22.412 86.584)" fill="#fff"/>
    <path id="Tracé_242" data-name="Tracé 242" d="M135.241,178.043H107.777a.8.8,0,0,1,0-1.593h27.465a.8.8,0,1,1,0,1.593Z" transform="translate(39.06 86.584)" fill="#68a9fd"/>
    <path id="Tracé_243" data-name="Tracé 243" d="M157.121,178.043H129.657a.8.8,0,0,1,0-1.593h27.465a.8.8,0,1,1,0,1.593Z" transform="translate(52.037 86.584)" fill="#68a9fd"/>
    <path id="Tracé_244" data-name="Tracé 244" d="M145.638,185.135H79.7a.765.765,0,0,1-.781-.765.781.781,0,0,1,.781-.781h65.938a.781.781,0,0,1,.781.781.765.765,0,0,1-.781.765Z" transform="translate(22.418 90.818)" fill="#fff"/>
    <path id="Tracé_245" data-name="Tracé 245" d="M159.161,185.135H126.185a.749.749,0,0,1-.765-.765.765.765,0,0,1,.765-.781h32.977a.765.765,0,0,1,.765.781.749.749,0,0,1-.765.765Z" transform="translate(49.996 90.818)" fill="#68a9fd"/>
    <path id="Tracé_246" data-name="Tracé 246" d="M202.179,185.135H151.965a.749.749,0,0,1-.765-.765.765.765,0,0,1,.765-.781h50.214a.781.781,0,0,1,.781.781.765.765,0,0,1-.781.765Z" transform="translate(65.286 90.818)" fill="#68a9fd"/>
    <path id="Tracé_247" data-name="Tracé 247" d="M236.961,185.135h-50.15a.765.765,0,0,1-.781-.765.781.781,0,0,1,.781-.781h50.15a.781.781,0,0,1,.781.781.765.765,0,0,1-.781.765Z" transform="translate(85.943 90.818)" fill="#68a9fd"/>
    <path id="Tracé_248" data-name="Tracé 248" d="M129.5,192.245H90.171a.765.765,0,0,1-.781-.765.781.781,0,0,1,.781-.781H129.5a.765.765,0,0,1,.765.781.749.749,0,0,1-.765.765Z" transform="translate(28.628 95.035)" fill="#fff"/>
    <path id="Tracé_249" data-name="Tracé 249" d="M158.818,192.245H119.485a.749.749,0,0,1-.765-.765.765.765,0,0,1,.765-.781h39.333a.781.781,0,0,1,.781.781.765.765,0,0,1-.781.765Z" transform="translate(46.023 95.035)" fill="#68a9fd"/>
    <path id="Tracé_250" data-name="Tracé 250" d="M188.354,192.245H149.021a.765.765,0,0,1-.781-.765.781.781,0,0,1,.781-.781h39.333a.765.765,0,0,1,.765.781.749.749,0,0,1-.765.765Z" transform="translate(63.53 95.035)" fill="#68a9fd"/>
    <path id="Tracé_251" data-name="Tracé 251" d="M218.946,193.063H179.6a.8.8,0,0,1,0-1.593h39.349a.8.8,0,1,1,0,1.593Z" transform="translate(81.655 95.492)" fill="#68a9fd"/>
    <path id="Tracé_252" data-name="Tracé 252" d="M120.937,199.355H93.855a.749.749,0,0,1-.765-.765.765.765,0,0,1,.765-.781h27.082a.781.781,0,0,1,.781.781.765.765,0,0,1-.781.765Z" transform="translate(30.822 99.252)" fill="#fff"/>
    <path id="Tracé_253" data-name="Tracé 253" d="M141.963,199.355H114.881a.765.765,0,0,1-.781-.765.781.781,0,0,1,.781-.781h27.082a.765.765,0,0,1,.765.781.749.749,0,0,1-.765.765Z" transform="translate(43.283 99.252)" fill="#68a9fd"/>
    <path id="Tracé_254" data-name="Tracé 254" d="M192.015,200.5h0l-55.981-1.147a.765.765,0,0,1-.765-.781.749.749,0,0,1,.8-.765l55.981,1.147a.8.8,0,0,1,0,1.593Z" transform="translate(55.838 99.251)" fill="#68a9fd"/>
    <path id="Tracé_255" data-name="Tracé 255" d="M197.926,121.135H161.285a.765.765,0,0,1-.765-.781.749.749,0,0,1,.765-.765h36.641a.765.765,0,0,1,.781.765.781.781,0,0,1-.781.781Z" transform="translate(70.813 52.861)" fill="#68a9fd"/>
    <path id="Tracé_256" data-name="Tracé 256" d="M205.954,121.252c-7.169,0-12.49,0-12.745-.159a.769.769,0,0,1,.414-1.482c1.4.175,25.585.08,41.579,0h0a.765.765,0,0,1,.781.765.781.781,0,0,1-.781.781C226.664,121.188,214.875,121.252,205.954,121.252Z" transform="translate(89.867 52.857)" fill="#68a9fd"/>
    <path id="Tracé_257" data-name="Tracé 257" d="M200.435,106.933H147.227a.8.8,0,0,1,0-1.593h53.209a.8.8,0,1,1,0,1.593Z" transform="translate(62.457 44.41)" fill="#68a9fd"/>
    <path id="Tracé_258" data-name="Tracé 258" d="M240.314,106.933H187.3a.8.8,0,0,1,0-1.593H240.25a.8.8,0,1,1,0,1.593Z" transform="translate(86.222 44.41)" fill="#68a9fd"/>
    <path id="Tracé_259" data-name="Tracé 259" d="M155.8,99.832H138.181a.781.781,0,0,1-.637-.892.765.765,0,0,1,.86-.637c1.354.1,40.639,0,61.254,0h0a.781.781,0,0,1,.781.781.765.765,0,0,1-.781.765C191.007,99.8,170.68,99.832,155.8,99.832Z" transform="translate(57.181 40.232)" fill="#68a9fd"/>
    <path id="Tracé_260" data-name="Tracé 260" d="M185.811,99.9a.749.749,0,0,1-.669-.446.844.844,0,0,1,.414-1.067c.621-.3,13-.335,36.768,0a.8.8,0,0,1,.765.781.765.765,0,0,1-.781.765h0c-13.844-.143-34.888-.271-36.195,0A.542.542,0,0,1,185.811,99.9Z" transform="translate(85.381 40.146)" fill="#fff"/>
    <path id="Tracé_261" data-name="Tracé 261" d="M163.829,149.593H136.4a.8.8,0,1,1,0-1.593h27.433a.8.8,0,0,1,0,1.593Z" transform="translate(56.034 69.711)" fill="#68a9fd"/>
    <path id="Tracé_262" data-name="Tracé 262" d="M121.621,156.713H101.437a.8.8,0,1,1,0-1.593h20.184a.8.8,0,0,1,0,1.593Z" transform="translate(35.3 73.933)" fill="#68a9fd"/>
    <path id="Tracé_263" data-name="Tracé 263" d="M166.884,156.713H118.917a.8.8,0,0,1,0-1.593h47.968a.8.8,0,0,1,0,1.593Z" transform="translate(45.667 73.933)" fill="#fff"/>
    <path id="Tracé_264" data-name="Tracé 264" d="M247.981,156.713H155.057a.8.8,0,0,1,0-1.593h92.924a.8.8,0,0,1,0,1.593Z" transform="translate(67.101 73.933)" fill="#68a9fd"/>
    <circle id="Ellipse_12" data-name="Ellipse 12" cx="2.708" cy="2.708" r="2.708" transform="translate(63.71 108.394)" fill="#231f20"/>
    <circle id="Ellipse_13" data-name="Ellipse 13" cx="2.708" cy="2.708" r="2.708" transform="translate(73.205 108.394)" fill="#fff"/>
    <circle id="Ellipse_14" data-name="Ellipse 14" cx="2.708" cy="2.708" r="2.708" transform="translate(82.699 108.394)" fill="#fff"/>
    <path id="Tracé_265" data-name="Tracé 265" d="M217.976,253.64H116.64l11.454-34.92h78.427Z" transform="translate(44.789 111.653)" fill="#fff"/>
    <path id="Tracé_266" data-name="Tracé 266" d="M218.276,254.733H116.941a.781.781,0,0,1-.765-1.035l11.454-34.92a.8.8,0,0,1,.765-.558h78.427a.8.8,0,0,1,.765.558l11.454,34.92a.781.781,0,0,1-.765,1.035ZM118.04,253.14h99.137l-10.928-33.327h-77.28Z" transform="translate(44.489 111.357)" fill="#231f20"/>
    <rect id="Rectangle_39" data-name="Rectangle 39" width="127.908" height="9.829" rx="3.09" transform="translate(148.143 365.294)" fill="#fff"/>
    <path id="Tracé_267" data-name="Tracé 267" d="M231.6,251.578H113.519a5.719,5.719,0,1,1,0-11.438H231.6a5.719,5.719,0,0,1,0,11.438Zm-118.079-9.845a4.126,4.126,0,0,0,0,8.252H231.6a4.126,4.126,0,0,0,0-8.252Z" transform="translate(39.546 124.357)" fill="#231f20"/>
    <path id="Tracé_268" data-name="Tracé 268" d="M118.55,244.384c1.593-.86,89.372-16.887,89.372-16.887l-2.883-8.778H126.611Z" transform="translate(45.922 111.653)" fill="#231f20"/>
    <path id="Tracé_269" data-name="Tracé 269" d="M118.822,245.466a.749.749,0,0,1-.494-.191.765.765,0,0,1-.223-.828l8.061-25.665a.749.749,0,0,1,.733-.542h78.427a.749.749,0,0,1,.733.526l2.883,8.762a.8.8,0,0,1-.605,1c-24.055,4.4-87,16.01-89.212,16.855a.86.86,0,0,1-.3.08Zm8.7-25.68L120.033,243.6c10.546-2.39,71.975-13.637,87.205-16.425l-2.421-7.392Z" transform="translate(45.634 111.368)" fill="#231f20"/>
  </g>
</svg>
